<?xml version="1.0" encoding="utf-8"?>
<!-- Generator: Adobe Illustrator 22.0.0, SVG Export Plug-In . SVG Version: 6.00 Build 0)  -->
<svg version="1.1" xmlns="http://www.w3.org/2000/svg" xmlns:xlink="http://www.w3.org/1999/xlink" x="0px" y="0px"
	 viewBox="0 0 307.8 40" style="enable-background:new 0 0 307.8 40;" xml:space="preserve">
<style type="text/css">
	.st0{opacity:0.6;fill:url(#SVGID_1_);}
	.st1{fill:#70B634;}
	.st2{opacity:0.3;}
	.st3{fill:#0E9338;}
	.st4{fill:#E3EBDD;}
	.st5{opacity:0.7;fill:#E3EBDD;}
	.st6{fill:#ABCA34;}
	.st7{opacity:0.9;fill:#FFFFFF;}
	.st8{opacity:0.4;}
	.st9{fill:#30A836;}
	.st10{opacity:0.5;}
	.st11{fill:#D0C2BA;}
	.st12{fill:#A48A7B;}
	.st13{fill:#3AAA35;}
	.st14{fill:#D3D800;}
	.st15{fill:#AFCA0B;}
	.st16{fill:#B8ADA2;}
	.st17{fill:#7B6A58;}
	.st18{fill:#00572B;}
	.st19{fill:#008332;}
	.st20{fill:#4CA22F;}
	.st21{fill:#94B722;}
	.st22{opacity:0.33;fill:url(#SVGID_2_);}
	.st23{fill:#DBC24E;}
	.st24{fill:#FFEE97;}
	.st25{fill:#D2C8D0;}
	.st26{fill:#AA9DA0;}
	.st27{fill:#81818E;}
	.st28{fill:#B9B9C6;}
	.st29{fill:#FFFFFF;}
	.st30{fill:url(#SVGID_3_);}
	.st31{fill:url(#SVGID_4_);}
	.st32{fill:#9E9DA9;}
	.st33{fill:url(#SVGID_5_);}
	.st34{fill:#E9E3E4;}
	.st35{fill:#BB978E;}
	.st36{fill:#896559;}
	.st37{fill:#75230E;}
	.st38{fill:#D5D4D4;}
	.st39{fill:#C7B8A5;}
	.st40{fill:#F0F0E3;}
	.st41{fill:#F8F8F9;}
	.st42{fill:#55514F;}
	.st43{fill:#3B3835;}
	.st44{fill:#EEE9EA;}
	.st45{fill:#8D8388;}
	.st46{fill:#858491;}
	.st47{fill:url(#SVGID_6_);}
	.st48{fill:url(#SVGID_7_);}
	.st49{fill:#999999;}
	.st50{fill:url(#SVGID_8_);}
	.st51{fill:url(#SVGID_9_);}
	.st52{fill:url(#SVGID_10_);}
	.st53{fill:url(#SVGID_11_);}
	.st54{fill:url(#SVGID_12_);}
	.st55{fill:#706E7B;}
	.st56{fill:#CACDC8;}
	.st57{fill:#AEAEBA;}
	.st58{fill:#E5E4D2;}
	.st59{fill:#D3CDCC;}
	.st60{fill:#FBF7F8;}
	.st61{fill:#C8C8D5;}
	.st62{fill:#BCBCC9;}
	.st63{fill:url(#SVGID_13_);}
	.st64{fill:url(#SVGID_14_);}
	.st65{fill:url(#SVGID_15_);}
	.st66{fill:#DF6710;}
	.st67{fill:#B15418;}
	.st68{fill:url(#SVGID_16_);}
	.st69{fill:url(#SVGID_17_);}
	.st70{fill:#A74B18;}
	.st71{fill:url(#SVGID_18_);}
	.st72{fill:url(#SVGID_19_);}
	.st73{fill:url(#SVGID_20_);}
	.st74{fill:url(#SVGID_21_);}
	.st75{fill:url(#SVGID_22_);}
	.st76{fill:#AFCB3A;}
	.st77{opacity:0.33;fill:url(#SVGID_23_);}
	.st78{fill:url(#SVGID_24_);}
	.st79{fill:url(#SVGID_25_);}
	.st80{fill:url(#SVGID_26_);}
	.st81{fill:url(#SVGID_27_);}
	.st82{fill:#E3051A;}
	.st83{fill:#A91917;}
	.st84{fill:#7E170F;}
	.st85{fill:url(#SVGID_28_);}
	.st86{fill:url(#SVGID_29_);}
	.st87{fill:#282727;}
	.st88{fill:#575756;}
	.st89{fill:#9D9D9C;}
	.st90{fill:#3C3C3B;}
	.st91{fill:#C6C6C6;}
	.st92{fill:#EDEDED;}
	.st93{fill:#E94E1B;}
	.st94{fill:#83929B;}
	.st95{fill:#C5DCEA;}
	.st96{fill:#5D5143;}
	.st97{fill:#DADADA;}
	.st98{fill:#878787;}
	.st99{opacity:0.33;fill:url(#SVGID_30_);}
	.st100{fill:#88CDD3;}
	.st101{fill:#E3E3E3;}
	.st102{fill:#75B0B5;}
	.st103{fill:#F9B233;}
	.st104{fill:#E6332A;}
	.st105{fill:#F39200;}
	.st106{fill:#BDB5DA;}
	.st107{opacity:0.33;fill:url(#SVGID_31_);}
	.st108{fill:url(#SVGID_32_);}
	.st109{fill:url(#SVGID_33_);}
	.st110{fill:url(#SVGID_34_);}
	.st111{fill:url(#SVGID_35_);}
	.st112{fill:url(#SVGID_36_);}
	.st113{fill:url(#SVGID_37_);}
	.st114{fill:url(#SVGID_38_);}
	.st115{fill:url(#SVGID_39_);}
	.st116{fill:url(#SVGID_40_);}
	.st117{fill:#6298D1;}
	.st118{fill:#3971AE;}
	.st119{fill:#39ABE2;}
	.st120{fill:url(#SVGID_41_);}
	.st121{fill:url(#SVGID_42_);}
	.st122{fill:url(#SVGID_43_);}
	.st123{fill:url(#SVGID_44_);}
	.st124{fill:url(#SVGID_45_);}
	.st125{fill:url(#SVGID_46_);}
	.st126{fill:url(#SVGID_47_);}
	.st127{fill:url(#SVGID_48_);}
	.st128{fill:url(#SVGID_49_);}
	.st129{fill:url(#SVGID_50_);}
	.st130{fill:url(#SVGID_51_);}
	.st131{fill:url(#SVGID_52_);}
	.st132{fill:url(#SVGID_53_);}
	.st133{fill:#DE1533;}
	.st134{fill:#E8B91E;}
	.st135{fill:#4B9B35;}
	.st136{fill:#C41722;}
	.st137{fill:#E6311F;}
	.st138{fill:#3ABBE4;}
	.st139{fill:#FBC500;}
	.st140{fill:#A6183B;}
	.st141{fill:#EB601E;}
	.st142{fill:#DA035E;}
	.st143{fill:#F59C1E;}
	.st144{fill:#CD9B0E;}
	.st145{fill:#3F7C3C;}
	.st146{fill:#2295D3;}
	.st147{fill:#5EB130;}
	.st148{fill:#00629B;}
	.st149{fill:#1D4467;}
	.st150{fill:#2B4265;}
	.st151{opacity:0.9;fill:#2B4265;}
	.st152{fill:none;stroke:#FFFFFF;stroke-width:2;stroke-miterlimit:10;}
	.st153{fill:#F5FBFE;}
	.st154{fill:#3CBBE4;}
	.st155{fill:#3CBCE4;}
	.st156{fill:#FFFEFF;}
	.st157{fill:#FFFEFE;}
	.st158{fill:#FFFCFE;}
	.st159{fill:#FBE8F2;}
	.st160{fill:#F7C7DD;}
	.st161{fill:#F9D7E8;}
	.st162{fill:#EA74A4;}
	.st163{fill:#EC88B2;}
	.st164{fill:#F1A9CA;}
	.st165{fill:#FFFFFE;}
	.st166{fill:#FFFEFD;}
	.st167{fill:#FFFDFB;}
	.st168{fill:#FFFAF3;}
	.st169{fill:#F7A938;}
	.st170{fill:#FFFAF4;}
	.st171{fill:#F8AC43;}
	.st172{fill:#F8AC45;}
	.st173{fill:#F8AB43;}
	.st174{fill:#F7A83A;}
	.st175{fill:#F6A32F;}
	.st176{fill:#F7A636;}
	.st177{fill:#F7A737;}
	.st178{fill:#F7A839;}
	.st179{fill:#F7A83B;}
	.st180{fill:#F7A93B;}
	.st181{fill:#F7A93C;}
	.st182{fill:#F7A93D;}
	.st183{fill:#F59D20;}
	.st184{fill:#F6A129;}
	.st185{fill:#F8AC42;}
	.st186{fill:#F6A32E;}
	.st187{fill:#FFFCF7;}
	.st188{fill:#FFF2E2;}
	.st189{fill:#F9B85F;}
	.st190{fill:#F7A533;}
	.st191{fill:#FAB85D;}
	.st192{fill:#F6A027;}
	.st193{fill:#FEFEFE;}
	.st194{fill:#FCFDFB;}
	.st195{fill:#F8FBF4;}
	.st196{fill:#FBFDF9;}
	.st197{fill:#F9FBF6;}
	.st198{fill:#F7FAFC;}
	.st199{fill:#F5F8FB;}
	.st200{fill:#096AA0;}
	.st201{fill:#1170A5;}
	.st202{fill:#EDF3F9;}
	.st203{fill:#ECF3F9;}
	.st204{fill:#E0E8F2;}
	.st205{fill:#247DAE;}
	.st206{fill:#DDE7F2;}
	.st207{fill:#F2F7FB;}
	.st208{fill:#E4ECF5;}
	.st209{fill:#2473A7;}
	.st210{fill:#1F73A6;}
	.st211{fill:#C0D7E7;}
	.st212{fill:#DDEAF3;}
	.st213{fill:#BCD5E6;}
	.st214{fill:#95BCD6;}
	.st215{fill:#D8E8F2;}
	.st216{fill:#488EB9;}
	.st217{fill:#C8DDEB;}
	.st218{fill:#0F6BA1;}
	.st219{fill:#BFD7E7;}
	.st220{fill:#BD897A;}
	.st221{fill:#862A22;}
	.st222{fill:#FDFBFB;}
	.st223{fill:#FEFDFD;}
	.st224{fill:#FCF9FA;}
	.st225{fill:#FDFBFC;}
	.st226{fill:#FCFAFA;}
	.st227{fill:#FEFCFC;}
	.st228{fill:#F8F3F3;}
	.st229{fill:#FAF6F7;}
	.st230{fill:#FAF6F6;}
	.st231{fill:#FCF9F9;}
	.st232{fill:#F6EFEF;}
	.st233{fill:#D7B8B6;}
	.st234{fill:#F8F2F3;}
	.st235{fill:#FBF8F8;}
	.st236{fill:#F2E7E7;}
	.st237{fill:#F4EAEA;}
	.st238{fill:#EFE2E2;}
	.st239{fill:#C08C88;}
	.st240{fill:#DBBFBE;}
	.st241{fill:#E4CECE;}
	.st242{fill:#EEE0E0;}
	.st243{fill:#F9F4F4;}
	.st244{fill:#C79A97;}
	.st245{fill:#F3E7E8;}
	.st246{fill:#ECDEDD;}
	.st247{fill:#EEDFDF;}
	.st248{fill:#DFC5C5;}
	.st249{fill:#F8F1F2;}
	.st250{fill:#E9D8D7;}
	.st251{fill:#E1CAC9;}
	.st252{fill:#E2CBCA;}
	.st253{fill:#872B23;}
	.st254{fill:#8A3027;}
	.st255{fill:#EDDEDE;}
	.st256{fill:#F3E8E8;}
	.st257{fill:#F2E6E7;}
	.st258{fill:#F5EBEC;}
	.st259{fill:#D4B2B0;}
	.st260{fill:#913B33;}
	.st261{fill:#892F27;}
	.st262{opacity:0.2;}
	.st263{display:none;}
	.st264{display:inline;}
	.st265{fill:#F8B400;}
	.st266{fill:#C08715;}
	.st267{opacity:0.23;fill:#13110C;}
	.st268{fill:#E9455C;}
	.st269{fill:#A32D38;}
	.st270{fill:#41BCCD;}
	.st271{fill:#15808C;}
	.st272{fill:#2D476C;}
	.st273{fill:#1C2D47;}
</style>
<g id="Camada_3">
</g>
<g id="mapa">
	<g>
		<path class="st220" d="M259.7,39.8c0,0.1,0,0.1,0,0.2c-10.3,0-20.5,0-30.8,0c0-0.1,0-0.1,0-0.2c0.3-0.3,0.8-0.3,1.2-0.3
			c9.5,0,19,0,28.5,0C259,39.5,259.4,39.5,259.7,39.8z"/>
		<path class="st221" d="M259.7,40c-10.3,0-20.5,0-30.8,0c0-6.4,0-12.8,0-19.2c0-3.6,0-7.3,0-10.9c0-0.6,0.1-0.9,0.8-0.9
			c9.7,0,19.5,0,29.2,0c0.5,0,0.8,0,0.8,0.7c0,10,0,20,0,29.9C259.8,39.8,259.7,39.9,259.7,40z"/>
		<path class="st222" d="M302.9,32.4c0.2,0.4-0.1,0.7-0.2,1c-0.2,0.4-0.5,0.7-0.8,0.9c-1,0.8-2.1,0.4-3.2,0.1
			c-0.3-0.1-0.5-0.4-0.6-0.7c-0.2-0.3-0.5-0.9-0.2-1c0.4-0.2,1-0.4,1.4,0.2c0.3,0.4,0.7,0.7,1.3,0.6c0.3-0.1,0.6-0.3,0.7-0.6
			c0-0.3-0.3-0.4-0.5-0.5c-0.6-0.2-1.3-0.4-1.9-0.6c-0.8-0.3-1.1-1.2-0.8-1.9c0.4-0.9,1.2-1.2,2.1-1.2c0.9,0,1.8,0.1,2.3,0.9
			c0.2,0.3,0.5,1,0.3,1.1c-0.4,0.2-1.1,0.3-1.5-0.2c-0.2-0.3-0.4-0.5-0.8-0.5c-0.3,0-0.6,0-0.7,0.3c-0.1,0.3,0.2,0.5,0.4,0.5
			c0.4,0.1,0.7,0.3,1.2,0.4c0.6,0.1,1.2,0.3,1.4,1C302.6,32.3,302.8,32.3,302.9,32.4z"/>
		<path class="st222" d="M266.4,32.2c-0.3-0.7-0.6-1.4-0.9-2.1c0,0-0.1,0-0.1,0c0,1.3-0.1,2.6,0,3.9c0,0.6-0.2,0.7-0.6,0.6
			c-0.4-0.1-1.1,0.4-1.1-0.5c0-2.2,0-4.5,0-6.7c0-0.1,0-0.3,0.1-0.4c0.3-0.4,2.4,0,2.6,0.5c0,0.3-0.3,0.5-0.2,0.8
			c0,0.4,0.3,0.3,0.5,0.3c0.6,1,0.6,2.2,1.2,3.1c0.1,0.2,0,0.3-0.1,0.5C267.3,32.8,267.1,32.8,266.4,32.2z"/>
		<path class="st222" d="M290.5,30.4c0.1-0.8-0.3-1.4-1-1.6c-1.2-0.3-2.3-0.3-3.3,0.6c-0.3,0.3-0.8,0.7-0.6,1.1
			c0.2,0.4,0.9,0.1,1.3,0.2c0.2,0,0.3-0.2,0.4-0.4c0.1-0.2,0.4-0.4,0.6-0.4c0.5-0.1,0.8,0,0.9,0.5c0.1,0.5-0.2,0.6-0.6,0.6
			c-0.2,0-0.4,0-0.6,0.2c-0.2,0.2-0.4,0.3-0.6,0.5c0-0.2,0-0.4-0.1-0.5c-1.1,0.1-1.8,0.7-1.8,1.7c0,1.1,0.7,1.8,1.8,1.8
			c0.5,0,1,0,1.5-0.2c0.1-0.2,0.3-0.3,0.5-0.1c0.1,0.1,0.1,0.1,0.2,0.2c0.1-0.1,0.2-0.1,0.2-0.2c0,0,0-0.1,0-0.1c0,0,0,0,0-0.1
			c0-0.8,0.4-1.4,0.9-1.9c0-0.5,0-0.9,0-1.4C290.3,30.8,290.3,30.6,290.5,30.4z M288.3,33.5c-0.4,0.2-1,0.2-1.2-0.3
			c-0.2-0.5,0.3-0.7,0.7-0.8c0.3-0.1,0.6-0.1,0.8-0.2c0.7,0.2,0.1,0.6,0.2,0.9C288.7,33.2,288.5,33.4,288.3,33.5z"/>
		<path class="st222" d="M270,30.3c0,0.1,0,0.1-0.1,0.2c-0.2,0.2-0.4,0.3-0.7,0.4c-0.3,0-0.6,0-0.8-0.2c0.1-0.5,0.3-0.9,0.4-1.4
			c0.2-0.3,0.9-0.2,1-0.7c0-0.1,0-0.2,0-0.3c0-0.2,0.1-0.4-0.1-0.5c-0.1-0.1-0.2-0.2-0.2-0.3c0-0.4,0.1-0.5,0.5-0.5
			c1.9-0.2,1.9-0.1,1.9,1.8c0,1.8-0.1,3.5,0.1,5.3c0,0.3,0.1,0.7-0.3,0.7c-0.5,0-1.1,0.4-1.4-0.3c0-0.1,0.2,0,0.2-0.1
			c0,0-0.1,0-0.2-0.1c0-1.2,0-2.4,0-3.6C270.2,30.3,270.3,30,270,30.3z"/>
		<path class="st222" d="M279.2,31.5c0-0.5,0-1,0-1.6c0-1,0.5-1.4,1.4-1c0.4,0.2,0.7,0.1,1.1-0.1c0.9-0.4,1.7-0.2,2.5,0.6
			c-0.2,0.8-0.3,0.9-1,0.5c-0.1-0.1-0.3,0.2-0.5,0.1c-1.5,0-1.8,0.2-1.8,1.9c-0.2,0.5-0.1,1.1-0.1,1.6c0,0.9-0.1,1-1,0.8
			c-0.2,0-0.5,0-0.5-0.3C279.3,33.2,279.4,32.3,279.2,31.5z"/>
		<path class="st222" d="M277.7,34.6c-0.3-0.1-0.6-0.1-0.9,0c-0.2-0.1-0.3-0.3-0.6-0.1c-0.4,0.3-0.9,0.3-1.3,0.3
			c-1.4,0-2.1-0.6-2.1-1.8c0-1.1,0.8-1.7,2.1-1.6c0.1,0.5-0.5,0.7-0.4,1.1c0,0,0,0,0,0c0,0,0,0,0,0.1c0,0,0,0,0,0
			c0,0.1,0,0.2,0.1,0.3c0,0,0,0,0,0c0.4,0.9,1,1,1.8,0.2V33c0,0,0,0,0,0c0.1,0,0.3,0,0.4,0c0,0,0,0,0,0h0c0.3,0.3,0.5-0.1,0.8,0
			c0,0,0,0,0,0c0,0,0,0,0,0c0.1,0.1,0.2,0.2,0.2,0.3c0,0,0,0.1,0,0.1c0,0,0,0,0,0.1c0,0.2,0.1,0.3,0.2,0.5
			C278.4,34.4,278.2,34.6,277.7,34.6z"/>
		<path class="st222" d="M295.5,29.2c0.4-0.6,0.9-0.3,1.4-0.2c0.3,0.1,0.2,0.5,0.2,0.8c0,1.3-0.1,2.6,0,4c0,0.3,0.1,0.8-0.4,0.8
			c-0.4,0-1.2,0.5-1.3-0.5c-0.4-0.2-0.4-0.5-0.3-0.9c0.4-0.7,0.5-1.5,0.5-2.2c-0.1-0.3-0.2-0.6,0.1-0.8c0.1,0,0.2,0.1,0.3,0.1
			c-0.1,0-0.1-0.1-0.1-0.1C296.2,29.6,295.5,29.5,295.5,29.2z"/>
		<path class="st222" d="M278,32.5c-0.1,0.2-0.1,0.4-0.3,0.5c0,0,0,0,0,0c-0.3-0.2-0.6,1-0.9,0c0,0,0,0,0,0
			c-0.1-0.2-0.3-0.1-0.4-0.2c0,0,0,0,0,0c0,0,0-0.1,0.1-0.1c0-0.9-0.6-0.4-1-0.4c0,0,0,0,0,0c0,0,0,0-0.1-0.1
			c-0.1-0.4,0.1-0.7,0.4-1c0.4-0.1,0.9-0.2,0.6-0.8c-0.2-0.5-0.7-0.5-1.2-0.3c-0.3,0.1-0.3,0.4-0.5,0.5c0,0-0.1,0-0.1,0.1
			c0,0-0.1,0-0.1,0c0,0,0,0,0,0c0,0,0,0,0,0c0-0.1,0-0.2,0-0.3c0-0.1,0-0.1,0.1-0.2c0,0,0,0,0,0c0.1-0.2,0.1-0.3,0.3-0.5l0,0
			c0,0,0,0,0.1,0c0,0,0,0,0,0l0,0c0,0,0,0,0.1-0.1c0.3-0.1,0.3-0.5,0.6-0.7c0.9-0.1,1.8-0.1,2.3,0.9c-0.1,0.6-0.2,1.2,0.2,1.7
			C277.7,31.7,277.9,32.1,278,32.5z"/>
		<path class="st222" d="M282.7,30.1c0.1-0.3,0.4-0.4,0.6-0.6c0.3,0.2-0.3,0.6,0.1,0.6c0.4,0,0.5-0.4,0.7-0.7
			c0.2,0.2,0.4,0.4,0.3,0.7c0.2,1,0,2,0.1,3c0,0.3,0,0.6,0.1,0.8c0.1,0.6-0.3,0.7-0.7,0.6c-0.4-0.1-1.1,0.4-1-0.5
			c0.4-0.2,0-0.4,0-0.5C282.8,32.4,283,31.2,282.7,30.1z"/>
		<path class="st222" d="M266.4,32.2c0.5,0.2,1,0.5,1.4-0.2c0.2-0.1,0.4-0.1,0.6,0c0.2,0.1,0.3,0.3,0.5,0.5c0.1,0.2,0.3,0.3,0.2,0.6
			c0,0.1-0.1,0.1-0.1,0.2c-0.1,0.2-0.2,0.3-0.1,0.5c-0.1,0.5-0.1,0.9-0.9,0.9c-0.7,0-0.9-0.3-1.1-0.8
			C266.7,33.3,266.5,32.7,266.4,32.2z"/>
		<path class="st222" d="M295.1,33.2c0.3,0.2,0.1,0.6,0.3,0.9c-0.8,0.6-1.7,0.8-2.6,0.4c-0.2-0.1-0.3-0.4-0.5-0.3
			c-0.3-0.2-0.5-0.5-0.5-0.9c0.1-0.1,0.1-0.1,0.2-0.2c0.4-0.2,1-0.2,1-0.9c0-0.1,0.2-0.2,0.4-0.1C293.7,33.3,294,33.5,295.1,33.2z"
			/>
		<path class="st222" d="M293.3,32c-0.1,0.1-0.2,0.1-0.3,0.2c-0.3,0.3,0.5,0.9-0.1,0.9c-0.4,0-0.7,0.1-1.1,0.2c0-0.9,0-1.7,0-2.6
			c0.5-0.1,0.7-0.5,1.1-0.8c0.3,0,0.5,0.1,0.5,0.4C293.3,30.8,293.3,31.4,293.3,32z"/>
		<path class="st222" d="M289.5,34.2c-0.1-1.2,0.1-1.6,1-1.9c0.1,0.6,0.1,1.1,0.2,1.7c0.1,0.5-0.2,0.6-0.6,0.6
			C290,34.4,289.6,34.7,289.5,34.2z"/>
		<path class="st222" d="M274.9,29.6c-0.1,0.2-0.1,0.4-0.2,0.5c-0.4,0-0.3,0.5-0.6,0.6c-0.3-0.2-0.8,0.3-1-0.3
			c0.4-1.1,1.1-1.6,2.5-1.7C275.5,29.1,275.4,29.5,274.9,29.6c-0.1-0.1-0.1-0.1-0.1-0.2C274.8,29.4,274.8,29.5,274.9,29.6z"/>
		<path class="st222" d="M268.6,32.5c-0.1-0.2-0.4-0.3-0.3-0.5c-0.1-0.2,0.1-0.3,0.2-0.5c0.2-0.4,0.4-0.7,0.9-0.9
			c0.2-0.1,0.4-0.2,0.7-0.2c-0.2,0.5-0.2,1-0.5,1.4C269.2,32.1,269.1,32.6,268.6,32.5z"/>
		<path class="st222" d="M275.4,32.2L275.4,32.2c-0.2,0.2-0.5,0.3-0.8,0.4c0,0,0,0,0,0.1c0,0,0,0,0,0c-0.1,0-0.1-0.1-0.2-0.2
			c0,0,0,0,0,0c0-0.1,0-0.1-0.1-0.2c-0.2-0.5,0.4-0.7,0.5-1c0.3-0.1,0.6-0.1,0.9-0.2C275.8,31.6,275.3,31.8,275.4,32.2z"/>
		<path class="st222" d="M292.8,29.9c-0.1,0.5-0.4,0.9-1,0.7c0.1-0.5-0.4-1.2,0.3-1.6c0.5-0.2,0.7,0,0.5,0.5c0,0.1,0,0.2,0.1,0.3
			C292.7,29.8,292.8,29.8,292.8,29.9z"/>
		<path class="st222" d="M292.3,29.6c0.2-0.3,0.4-0.6-0.2-0.5c1.3-0.3,1.5-0.2,1.3,1.2c-0.2-0.1-0.4-0.2-0.5-0.4c-0.1,0-0.1,0-0.2,0
			C292.5,29.8,292.4,29.7,292.3,29.6z"/>
		<path class="st222" d="M279.4,34.2c0.1,0,0.2,0,0.3,0c1.1,0.3,1.1,0.3,1-0.9c0-0.5-0.2-1,0.2-1.4c0,0.4,0,0.7,0,1.1
			c0,1.6,0,1.6-1.6,1.5C279.3,34.5,279.3,34.3,279.4,34.2z"/>
		<path class="st222" d="M284.6,34.1c-0.5-0.7-0.1-1.4-0.2-2.1c-0.1-0.6,0-1.1,0.1-1.7C284.8,31.5,284.6,32.8,284.6,34.1z"/>
		<path class="st222" d="M278,31.3c-0.6-0.4-0.7-1.3-0.2-1.7C278.2,30.1,278,30.7,278,31.3z"/>
		<path class="st222" d="M295.9,30.2c-0.5,0.1-0.3,0.5-0.4,0.7c-0.3-0.6-0.1-1.2-0.1-1.8c0.2,0.3,0.6,0.2,0.9,0.2
			C296.4,29.8,295.9,29.9,295.9,30.2L295.9,30.2z"/>
		<path class="st222" d="M269.3,30.6c-0.2,0.3-0.5,0.7-0.7,1c-0.2,0.2-0.4,0.1-0.5-0.2c0.1-0.3,0.1-0.6,0.3-0.9
			C268.7,30.6,269,30.6,269.3,30.6z"/>
		<path class="st222" d="M279.4,34.2c0,0.1,0,0.2,0,0.4c-0.4-1-0.1-2.1-0.2-3.1C279.6,32.4,279.3,33.3,279.4,34.2z"/>
		<path class="st222" d="M270,28.5c-0.1,0.8-0.7,0.6-1.2,0.7c0-0.2,0-0.3,0.2-0.4c0.1-0.2,0.2-0.4,0.5-0.4
			C269.6,28.4,269.8,28.4,270,28.5z"/>
		<path class="st222" d="M266.7,28.5c-0.1,0.1-0.4,0.4-0.4,0.4c-0.2-0.2-0.3-0.5-0.3-0.7c0.2-0.1,0.1-0.6,0.5-0.5
			C266.6,27.9,266.6,28.2,266.7,28.5z"/>
		<path class="st222" d="M268.6,32.5c0.3-0.2,0.5-0.5,0.8-0.7c-0.1,0.4-0.1,0.9-0.5,1.2C268.8,32.9,268.6,32.8,268.6,32.5z"/>
		<path class="st222" d="M287.8,31.3c0,0.5-0.5,0.6-0.8,0.8c-0.2-0.3,0.1-0.5,0.1-0.8C287.3,31.3,287.5,31.3,287.8,31.3z"/>
		<path class="st222" d="M301.9,34.3c0.2-0.3,0.4-0.7,0.8-0.9C302.8,34,302.5,34.3,301.9,34.3z"/>
		<path class="st222" d="M269.5,27.3c0.1,0.1,0.2,0.1,0.3,0.2c0.1,0.4-0.1,0.6-0.3,0.9c-0.1,0.1-0.2,0.1-0.3,0
			C269.1,27.9,269.2,27.6,269.5,27.3z"/>
		<path class="st222" d="M277.7,33c0-0.3,0.1-0.4,0.3-0.5c0.2,0.3,0.2,0.6,0.1,0.9c-0.1,0.1-0.2,0.1-0.3,0
			C277.8,33.3,277.7,33.2,277.7,33z"/>
		<path class="st222" d="M273.1,30.4c0.3,0.3,0.7,0.1,1.1,0.2c0.1-0.1,0.2-0.1,0.3,0c0.1,0,0.1,0,0.2,0c-0.5,0.3-1.1,0.1-1.6,0.1
			C272.9,30.7,273,30.5,273.1,30.4z"/>
		<path class="st222" d="M266.5,27.7c-0.2,0.1-0.1,0.5-0.5,0.5c-0.1-0.4,0.1-0.6,0.4-0.7C266.4,27.5,266.4,27.6,266.5,27.7z"/>
		<path class="st222" d="M276.8,34.6c0.3-0.3,0.6-0.3,0.9,0C277.4,34.8,277.1,34.8,276.8,34.6z"/>
		<path class="st222" d="M289.5,34.2c0.2,0.1,0.6,0.1,0.7,0.4c-0.3,0.2-0.6,0-0.9,0C289.3,34.4,289.4,34.3,289.5,34.2z"/>
		<path class="st222" d="M268.1,31.5c0.2,0.1,0.3,0.1,0.5,0.2c-0.1,0.1-0.2,0.2-0.3,0.3c-0.2,0.1-0.3,0.1-0.5,0
			c0.1-0.1,0.1-0.3,0.2-0.4C268,31.6,268,31.5,268.1,31.5z"/>
		<path class="st222" d="M270.4,34.1c0.2-0.1,0.4-0.1,0.6,0c0,0,0,0.1,0,0.1c-0.2,0.3-0.4,0.1-0.6,0
			C270.4,34.2,270.4,34.1,270.4,34.1z"/>
		<path class="st222" d="M292.3,34.1c0.1-0.1,0.1-0.3,0.3-0.3c0.2,0.1,0.3,0.3,0.3,0.6C292.6,34.4,292.4,34.3,292.3,34.1z"/>
		<path class="st222" d="M282.9,33.5c0.2,0.1,0.3,0.2,0.3,0.4c0,0.1,0,0.2-0.1,0.3c-0.1-0.1-0.2-0.1-0.3-0.2
			C282.9,33.9,282.9,33.7,282.9,33.5z"/>
		<path class="st222" d="M277.8,33.4c0.1,0,0.2,0,0.3,0c0,0.2,0,0.3,0,0.5C278,33.7,277.5,33.8,277.8,33.4z"/>
		<path class="st222" d="M268.8,33.7c-0.2,0-0.2-0.1-0.2-0.3c0-0.2,0.1-0.3,0.3-0.3C269.1,33.4,268.8,33.6,268.8,33.7z"/>
		<path class="st222" d="M290.5,30.9c-0.2,0-0.4,0-0.4-0.3c0-0.2,0.2-0.2,0.4-0.2C290.5,30.6,290.5,30.8,290.5,30.9z"/>
		<path class="st222" d="M269.2,28.3c0.1,0,0.2,0,0.3,0c0,0,0,0.1,0,0.1c0,0,0,0.1,0,0.1c-0.2,0.1-0.3,0.2-0.5,0.3
			C268.9,28.6,268.9,28.4,269.2,28.3z"/>
		<path class="st222" d="M288.6,34.5c0-0.6,0.3-0.3,0.5-0.1C289,34.5,288.8,34.5,288.6,34.5z"/>
		<path class="st222" d="M270,30.3c0-0.2,0.1-0.4,0.2-0.4c0.2,0.1,0.1,0.3,0.1,0.5C270.2,30.4,270.1,30.3,270,30.3z"/>
		<path class="st222" d="M302.9,32.4c-0.2,0-0.2,0.4-0.4,0.2c-0.1-0.1,0.1-0.3,0.2-0.4C302.8,32.2,302.8,32.3,302.9,32.4z"/>
		<path class="st157" d="M251.5,34.6c-0.4,0-0.8,0.2-1.2-0.1c-0.1-0.3-0.3-0.2-0.5,0c-0.3-0.2-0.1-0.6-0.2-0.9
			c0.2-0.9,0-1.7,0.1-2.6c0-0.3,0-0.6,0.1-0.8c0-0.4,0.3-0.5,0.5-0.7c-0.2,0.1-0.4,0.4-0.6,0.1c0-0.1,0-0.2,0-0.2
			c0.1-0.8-0.1-1.7,0.1-2.5c1.1-0.3,2.2-0.1,3.3-0.1c0.4,0,0.8,0.1,1.2,0.1c0.2,0.2,0.1,0.3-0.1,0.4c-0.7,0.2-1.3,0.5-1.7,1.1
			c-0.9,0.3-1,0.5-0.5,1.4c0.1,0.1,0.1,0.4,0.4,0.2c0.2-0.2,0.5-0.2,0.8-0.3c0.5-0.2,0.5-0.6,0.6-1.1c0.1-0.3,0.4-0.5,0.5-0.8
			c0.2-0.2-0.2-0.7,0.3-0.8c1.2,0.4,1.6,2.1,0.7,2.8c-0.5,0.4-0.3,0.5,0,0.7c0.7,0.5,1,1.2,0.8,2c-0.1,0.1-0.2,0.1-0.3,0.1
			c-0.8-0.2-1-0.1-1.4,0.8c0,0.3,0.5,0.5,0.4,0.9c-0.2,0.1-0.3,0.1-0.5,0.2c-0.5,0.1-1-0.3-1.5-0.1C252.4,34.4,252,34.5,251.5,34.6z
			"/>
		<path class="st223" d="M243.4,32.7c0.8,0.8,1.7,0.6,2.6,0.2c0.2,0.2,0.2,0.4,0.1,0.6c-0.1,0.3-0.2,0.6-0.1,1c-3,0.9-5-0.7-4.7-3.7
			c-0.1-0.3,0-0.7-0.1-1.1c0.3-0.8,0.8-0.1,1.3-0.3c0.2,0.1,0.5-0.1,0.6,0.3c0,0.1,0,0.1,0,0.2c-0.1,0.1-0.1,0.2,0,0.4
			c0,0.1,0,0.1,0.1,0.2c0,0.1-0.1,0.2,0,0.4c0,0.2,0,0.3,0,0.5c0.2,0.5-0.1,0.9-0.1,1.4C243,32.8,243.2,32.6,243.4,32.7z"/>
		<path class="st223" d="M234.6,28c0.2,0.5-0.3,1.2,0.4,1.6c0.1,0,0.1,0.1,0.1,0.2c-0.1,0.4-0.6,0.5-0.7,0.9
			c-0.1,0.2-0.1,0.4-0.2,0.5c0,0.2-0.1,0.5-0.3,0.6c-0.2,0.2-0.6,0.2-0.6,0.6c-0.1,0.1-0.2,0.1-0.3,0.1c-0.1-0.1-0.1-0.2,0-0.4
			c0-1.5,0-3-0.1-4.5c-0.1-1,0.6-0.9,1.2-1c0.8,0,0.7,0.5,0.6,1c-0.3-0.1-0.5,0.1-0.7,0.3C234.2,28.1,234.4,27.8,234.6,28z"/>
		<path class="st222" d="M233.9,31.1c0.1-0.2,0.1-0.3,0.2-0.5c0.3-0.2,0.5-0.2,0.8-0.2c0.5-0.1,0.4-0.8,0.9-0.8
			c0.4,0,0.8,0.1,1.2,0.1c0.3,0,0.6-0.1,0.6-0.5c0.1-0.3,0.2-0.5,0.4-0.7c1-0.3,1.3,0,1.4,1.3c0,0.3,0,0.7-0.1,1
			c-0.5,0.6-1,0.9-1.8,0.4c-1,0-2-0.2-3,0.2C234.3,31.4,234.1,31.3,233.9,31.1z"/>
		<path class="st222" d="M236.9,21.8c0.3,0.3,0.2,0.8,0.6,1.2c0.2-0.6,0.4-1.2,0.6-1.8c0.1-0.4,0.3-0.5,0.7-0.5
			c0.3,0,0.8-0.2,0.7,0.4c-0.2,0.4-0.1,0.8,0,1.2c0,0.3,0,0.7,0,1c-0.3,0.3-0.5,0.5-0.8,0c0-0.3,0-0.6-0.1-1.1
			c-0.3,0.8-0.5,1.3-0.7,1.9c-0.1,0.2-0.1,0.6-0.5,0.6c-0.4,0-0.5-0.2-0.6-0.6c-0.1-0.5-0.3-1-0.5-1.5c0-0.1-0.1-0.3-0.1-0.4
			C236.4,22.1,236.7,21.9,236.9,21.8z"/>
		<path class="st223" d="M246,34.5c-0.3-0.5-0.1-1.1,0-1.6c-0.1-0.4,0.2-0.8,0.2-1.2c0.1-0.7,0.7-1.1,1.1-1.6
			c0.1-0.1,0.3-0.2,0.4-0.1C248.1,31.9,248.2,34,246,34.5z"/>
		<path class="st224" d="M255,24.5c-0.6,0.4-0.9,0.3-1-0.3c0-0.5,0-1.1,0-1.6c0-0.6,0.1-1.1-0.8-1c-0.2,0-0.3-0.1-0.3-0.3
			c0-0.2,0-0.4,0.3-0.4c0.9,0,1.8,0,2.7,0c0.2,0,0.2,0.2,0.2,0.4c0,0.2,0,0.4-0.2,0.4c-0.3,0-0.5,0-0.8,0
			C254.8,22.5,254.9,23.5,255,24.5z"/>
		<path class="st225" d="M249.7,22.1c-0.1,0.4-0.1,0.9,0.1,1.3c0.3,0.7,1.1,0.8,1.5,0.1c0.2-0.4,0.6-0.5,0.9-0.3
			c0.4,0.2,0,0.6-0.1,0.8c-0.4,0.7-1.1,0.9-1.8,0.8c-0.8-0.1-1.2-0.6-1.5-1.3c-0.2-0.5-0.3-1.1,0.1-1.6
			C249.2,21.7,249.5,21.7,249.7,22.1z"/>
		<path class="st226" d="M242.5,29.6c-0.4,0.4-0.8-0.3-1.2,0c-0.3-0.2,0.1-0.6-0.2-0.9c0-0.3,0-0.6,0-0.9c0-1.2,0.3-1.4,1.5-1
			c0.2,0.3-0.5,0.6-0.1,0.9c0.2,0.1,0.3,0.2,0.4,0.5c0,0.3,0,0.7,0.1,1C243,29.5,242.7,29.4,242.5,29.6z"/>
		<path class="st227" d="M246.1,29.2c-0.2-0.7,0-1.4,0-2.1c0-0.3,0.1-0.3,0.4-0.4c1.2-0.3,1.4,0,1.4,1.3
			C247.7,29.3,247.3,29.5,246.1,29.2z"/>
		<path class="st226" d="M233.9,31.1c0.2,0.1,0.4,0.1,0.5,0.2c0.3,0.4,0.3,0.9,0.2,1.4c0,0.2-0.2,0.3-0.1,0.5
			c0.2,0.4,0.3,0.8,0.1,1.2c-0.2,0-0.4,0-0.6,0c-0.6,0.3-0.7-0.3-1.1-0.5c0-0.4,0-0.8,0-1.2c0.2-0.1,0.4-0.1,0.4-0.3
			c0-0.3,0.2-0.4,0.4-0.5C233.9,31.6,234,31.4,233.9,31.1z"/>
		<path class="st228" d="M239.3,29.7c-0.2-1.2-0.4-1.4-1.2-1c-0.2,0.1-0.3,0-0.4-0.2c0-0.2,0-0.3,0-0.5c0-1.4,0-1.4,1.5-1.3
			c0.4,0.1,0.3,0.4,0.3,0.6c0,0.8,0,1.6,0,2.3C239.5,29.8,239.4,29.8,239.3,29.7z"/>
		<path class="st222" d="M247.3,22.6c0.3,0.7,0.5,1.3,0.8,2.1c-0.5,0-0.9,0.2-1.2-0.5c-0.3-0.6-0.9-0.4-1.4-0.2
			c-0.4,0-0.4-0.3-0.5-0.6c0.2-0.4,0.2-1,0.9-0.6c0.3,0.2,0.3-0.1,0.4-0.2c0.1-0.2,0.3-0.2,0.5-0.2
			C246.8,22.8,247.2,22.4,247.3,22.6z"/>
		<path class="st229" d="M239.5,33.7c0.1,0.5,0.1,0.9-0.6,0.8c-0.5,0-1.2,0.1-1.2-0.7c0-0.4,0-0.7,0-1.1c0.3-0.3,0.7-0.4,1.2-0.6
			c0.4,0,0.3,0.4,0.4,0.7C239.5,33.1,239.3,33.4,239.5,33.7z"/>
		<path class="st223" d="M233.1,24.7c-0.4,0-0.2-0.3-0.2-0.4c0-1,0-1.9,0-2.9c0-0.3,0-0.6,0.5-0.6c0.5,0,0.4,0.3,0.5,0.6
			c0,0.9,0.1,1.7,0,2.6C233.5,24.2,233.5,24.6,233.1,24.7z"/>
		<path class="st230" d="M240.9,22.4c0-0.5-0.3-1.3,0.3-1.6c0.7-0.3,1.5-0.1,2.3,0.2c0.2,0.1,0.4,0.3,0.4,0.5
			c-0.1,0.3-0.4,0.4-0.5,0.6c-0.1,0-0.2,0-0.2,0c-0.4-0.2-0.7-0.6-1.2-0.2c-0.2,0.2-0.4,0.4-0.6,0.5C241.1,22.5,241,22.5,240.9,22.4
			z"/>
		<path class="st231" d="M245.8,22.9c0-0.2-0.1-0.4-0.3-0.2c-0.2,0.1-0.3,0.3-0.4,0.5c-0.2,0-0.3,0-0.2-0.2c0.2-0.5,0.4-1,0.5-1.5
			c0.1-0.5,0.4-0.7,0.9-0.7c0.5,0,0.5,0.4,0.6,0.7c0.1,0.1,0.1,0.3,0.1,0.4c0.1,0.2,0,0.4-0.2,0.5c-0.2,0.1-0.3,0.1-0.5,0.2
			c-0.1-0.1-0.1-0.2-0.1-0.3c-0.1,0,0,0.1-0.1,0.2C246.1,22.7,246.1,23,245.8,22.9z"/>
		<path class="st193" d="M236.9,21.8c-0.1,0.3-0.4,0.3-0.5,0.6c-0.2,0.1-0.3,0.3-0.3,0.6c0,0.5-0.3,0.8-0.8,0.8c0-0.8,0-1.5,0-2.3
			c0-0.3-0.2-0.7,0.4-0.7c0.4,0,1-0.2,1.1,0.5C236.8,21.5,236.9,21.7,236.9,21.8z"/>
		<path class="st232" d="M241.3,22.4c0-0.3,0.3-0.4,0.5-0.5c0.4,0.6,0.9,0.5,1.4,0.2c0.1,0,0.2,0,0.2,0c0.2-0.1,0.4-0.4,0.6-0.1
			c-0.1,1.1-0.3,1.3-1.4,1.4c-0.3-0.1-0.6,0-0.9,0c-0.2-0.4-0.4,0.2-0.6,0c-0.1,0-0.1-0.1-0.2-0.1C241,22.9,241,22.6,241.3,22.4z"/>
		<path class="st230" d="M239,32.2c-0.3,0.4-0.7,0.5-1.2,0.5c-0.1-0.5-0.1-0.9-0.2-1.4c-0.1-0.1-0.1-0.1,0-0.2
			c0.6,0.5,1-0.1,1.5-0.3c0.3,0.2,0.2,0.5,0.2,0.8C239.3,31.8,239.2,32,239,32.2z"/>
		<path class="st60" d="M249.7,22.1c-0.3-0.1-0.5-0.2-0.8-0.2c0.5-1,1.2-1.3,2.2-1.1c0.1,0.3,0.2,0.5,0,0.8
			C250.4,21.4,250,21.7,249.7,22.1z"/>
		<path class="st230" d="M254.8,34.2c-0.1-0.3-0.5-0.5-0.5-0.9c0-0.3,0.2-0.4,0.5-0.5c0.3-0.1,0.6-0.2,0.8-0.3
			c0.1,0,0.2-0.1,0.3-0.1c0.1,0,0.2,0,0.3,0C256.2,33.4,255.7,34,254.8,34.2z"/>
		<path class="st227" d="M247.4,30.1c-0.2,0.7-0.9,0.9-1.2,1.6c0-0.6,0-1.3,0-1.9c0.2-0.4,0.5-0.5,0.8-0.4
			C247.4,29.4,247.3,29.8,247.4,30.1z"/>
		<path class="st233" d="M237.6,31.1c0,0.1,0,0.1,0,0.2c-0.4,0-0.8,0-1.2,0c-1.6,0-1.6,0-1.6,1.6c0,0.5,0.2,1-0.2,1.5
			c0-0.4,0-0.9-0.4-1.2c0-0.2,0.3-0.2,0.2-0.5c0.3-0.5,0.1-1,0-1.4C235.5,30.8,236.6,31.1,237.6,31.1z"/>
		<path class="st234" d="M235.3,23.8c0.2-0.4,1-0.4,0.5-1.1c-0.1-0.1,0.2-0.5,0.5-0.3c0.2,0.1,0.2,0.2,0,0.3
			c-0.5,0.3-0.1,0.7-0.2,1.1c-0.1,0.3,0.4,0.9-0.4,0.9C234.9,24.7,235.4,24.1,235.3,23.8z"/>
		<path class="st235" d="M247.4,30.1c-0.3-0.6-0.6-0.9-1.2-0.4c0-0.2,0-0.3,0-0.5c0.9,0,1.6-0.2,1.7-1.2c0.1,0.6,0.2,1.3-0.2,1.9
			C247.6,30,247.5,30,247.4,30.1z"/>
		<path class="st236" d="M244.9,23c0.1,0.1,0.1,0.2,0.2,0.2c0,0.3,0.1,0.5,0.4,0.7c-0.1,0.2-0.1,0.5-0.2,0.6
			c-0.2,0.3-0.5,0.2-0.8,0.1c-0.4-0.1-0.1-0.3,0-0.5C244.5,23.8,244.7,23.4,244.9,23z"/>
		<path class="st237" d="M251,21.6c0-0.3,0-0.5,0-0.8c0.3,0.2,0.8,0.2,1,0.6c0.1,0.2,0.5,0.5,0.1,0.7c-0.2,0.2-0.6,0.3-0.8-0.1
			C251.2,21.8,251.1,21.7,251,21.6z"/>
		<path class="st193" d="M238.7,23.5c0.3,0.3,0.5,0,0.8,0c0,0.3,0,0.6,0,0.9c0,0.2,0.1,0.5-0.3,0.4c-0.3,0-0.6,0-0.5-0.5
			C238.7,24,238.7,23.7,238.7,23.5z"/>
		<path class="st226" d="M241.1,23.3c0.1,0,0.1,0,0.2,0c0.1,0.2,0.3,0.3,0.5,0.4c0,0.3,0,0.5,0,0.8c0,0.3-0.2,0.4-0.5,0.4
			c-0.2,0-0.5-0.1-0.4-0.4c0-0.4,0-0.7,0-1.1C241,23.2,241,23.2,241.1,23.3z"/>
		<path class="st233" d="M250,30.2c-0.1,0.8-0.3,1.6-0.2,2.5c0,0.3,0,0.6-0.2,0.9c0-1.4,0-2.8,0-4.2c0,0,0.1,0,0.1,0
			c0,0.1,0,0.1,0.1,0.2C250,29.7,249.7,30,250,30.2z"/>
		<path class="st233" d="M239.2,26.7c-0.1,0-0.2,0-0.3,0c-0.4,0.1-1-0.2-1.1,0.2c-0.1,0.5-0.2,1.1,0,1.7c0,0.1,0.2,0.1,0.2,0.1
			c-0.2,0.2-0.3,0.3-0.5,0.5c0-0.6,0.1-1.3,0-1.9c-0.1-0.7,0.2-0.8,0.8-0.7C238.7,26.6,239,26.5,239.2,26.7z"/>
		<path class="st238" d="M239,32.2c0.1-0.2,0.1-0.4,0.2-0.6c0.1-0.1,0.2-0.1,0.3,0.1c0,0.7,0,1.4,0,2.1c-0.1-0.1-0.5,0-0.3-0.4
			C239.4,33,239.3,32.5,239,32.2z"/>
		<path class="st230" d="M252.8,34.3c0.6-0.3,1.1-0.1,1.6,0.1c-0.4,0.3-0.9,0.2-1.4,0C252.8,34.5,252.7,34.4,252.8,34.3z"/>
		<path class="st239" d="M239.5,31.7c-0.1,0-0.2,0-0.3-0.1c0-0.3,0-0.6-0.1-0.8c0.1-0.3,0.3-0.7,0.2-1c0,0,0.1,0,0.1,0
			C239.5,30.4,239.5,31,239.5,31.7z"/>
		<path class="st237" d="M234.6,28c-0.3,0.2-0.7,0.3-0.8,0c-0.2-0.3,0.3-0.4,0.5-0.6c0.4-0.4,0.2,0.3,0.4,0.2
			C234.6,27.7,234.6,27.9,234.6,28z"/>
		<path class="st233" d="M255,24.5c-0.2-1-0.4-2,0.1-2.9C255,22.6,255,23.5,255,24.5z"/>
		<path class="st240" d="M249.8,29.4c0,0-0.1,0-0.1,0c0-0.9-0.3-1.7,0.2-2.6C249.7,27.7,250,28.5,249.8,29.4z"/>
		<path class="st241" d="M242.7,32.8c-0.1-0.6,0.4-1,0.3-1.6c0.2,0.3,0.1,0.7,0.2,1.1C243.1,32.6,243.1,32.9,242.7,32.8z"/>
		<path class="st242" d="M232.9,33.9c0.5-0.1,0.6,0.6,1.1,0.5C233.5,34.5,232.8,35.1,232.9,33.9z"/>
		<path class="st243" d="M243,28.2c-0.2-0.1-0.3-0.2-0.5-0.3c-0.3-0.5,0.1-0.7,0.3-0.9C243.1,27.3,243,27.7,243,28.2z"/>
		<path class="st233" d="M235.9,29.6c-0.5,0.2-0.2,0.8-0.7,1c-0.5-0.2,0-0.6-0.2-0.8c0-0.1,0-0.1,0-0.2
			C235.3,29.6,235.6,29.6,235.9,29.6z"/>
		<path class="st244" d="M241.1,28.7c0.2,0,0.4-0.1,0.3,0.2c-0.1,0.2-0.1,0.5-0.1,0.7c0,0.4,0,0.8-0.1,1.2
			C240.9,30.1,241.1,29.4,241.1,28.7z"/>
		<path class="st236" d="M252.8,34.3c0.1,0.1,0.1,0.1,0.2,0.2c-0.5,0.2-0.9,0.1-1.4,0.1C251.9,34.3,252.3,34.2,252.8,34.3z"/>
		<path class="st245" d="M242.8,26.9c-0.1,0.3-0.4,0.5-0.3,0.9c-0.3,0-0.6-0.1-0.3-0.4c0.1-0.2,0.3-0.4,0.5-0.6
			C242.8,26.7,242.8,26.8,242.8,26.9z"/>
		<path class="st233" d="M233.4,32.3c0,0.2,0.1,0.5-0.1,0.6c-0.1,0-0.2-0.1-0.4-0.2c-0.2-0.2-0.2-0.4,0-0.5c0.1,0.2,0.1,0.3,0.4,0.2
			C233.3,32.3,233.4,32.3,233.4,32.3z"/>
		<path class="st237" d="M241.8,23.6c-0.2,0.1-0.4,0.1-0.6,0c0,0,0.1-0.2,0.1-0.4c0.2,0.1,0.3-0.5,0.5,0c0.1,0.1,0.1,0.1,0,0.2
			C241.8,23.5,241.8,23.6,241.8,23.6z"/>
		<path class="st237" d="M241.8,23.5c0-0.1,0-0.1,0-0.2c0.3-0.3,0.8,0.1,0.9-0.5c0.2,0.2,0,0.4,0,0.5
			C242.4,23.4,242.1,23.4,241.8,23.5z"/>
		<path class="st222" d="M233.1,24.7c0.3-0.2,0.2-0.7,0.7-0.7C234,24.6,233.7,24.8,233.1,24.7z"/>
		<path class="st246" d="M254.7,26.9c-0.2,0.3,0.2,0.6-0.2,0.9c-0.3-0.1-0.6-0.3-0.4-0.7c0.1-0.1,0.2-0.2,0.2-0.3
			C254.5,26.8,254.6,26.8,254.7,26.9z"/>
		<path class="st247" d="M242.7,32.8c0.2-0.2,0.3-0.3,0.5-0.5c0.1,0.1,0.1,0.2,0.2,0.3C243.2,32.9,243,33.1,242.7,32.8z"/>
		<path class="st248" d="M239.5,22.4c-0.1-0.4-0.4-0.8,0-1.2C239.5,21.6,239.5,22,239.5,22.4z"/>
		<path class="st249" d="M242.5,29.6c0.1-0.3,0.3-0.3,0.5-0.4c0.2,0.2,0.1,0.4,0,0.5C242.8,29.7,242.7,29.6,242.5,29.6z"/>
		<path class="st250" d="M246.8,22.4c0.1-0.2,0.1-0.4,0.2-0.5c0.2,0.2,0.2,0.5,0.3,0.7C247.2,22.5,246.9,22.8,246.8,22.4z"/>
		<path class="st237" d="M241.1,23.3c0,0-0.1,0-0.1,0c0-0.3,0-0.6,0-0.9c0.1,0,0.2,0,0.3,0C241.2,22.7,241.1,23,241.1,23.3z"/>
		<path class="st244" d="M244,21.9c-0.2,0-0.4,0.1-0.6,0.1c0.1-0.3,0.3-0.4,0.5-0.5C244,21.6,244.1,21.7,244,21.9z"/>
		<path class="st251" d="M243,30.8c-0.1,0-0.3,0.2-0.4,0c0-0.2,0.3-0.2,0.4-0.3C243.2,30.5,243.2,30.7,243,30.8z"/>
		<path class="st249" d="M243,30.3c-0.1,0-0.4,0.2-0.4,0c0-0.2,0.2-0.3,0.4-0.3C243,30,243,30.1,243,30.3z"/>
		<path class="st252" d="M249.8,34.4c0.1-0.2,0.2-0.3,0.3-0.3c0.2,0,0.2,0.2,0.1,0.3C250.1,34.5,250,34.5,249.8,34.4z"/>
		<path class="st222" d="M300.1,34.3c0.1-0.1,0.3-0.1,0.4-0.2C300.5,34.5,300.3,34.4,300.1,34.3z"/>
		<path class="st222" d="M264.8,27.4c0,0.1,0,0.3-0.2,0.3c-0.1,0-0.3,0.1-0.3-0.1c0-0.1,0.1-0.2,0.3-0.3
			C264.7,27.2,264.8,27.3,264.8,27.4z"/>
		<path class="st222" d="M264.1,28.8c0.1-0.1,0.1-0.2,0.2-0.2c0.1,0,0.2,0.1,0.2,0.2c0,0.1-0.1,0.2-0.2,0.2
			C264.2,29,264.1,28.9,264.1,28.8z"/>
		<path class="st222" d="M266.8,31c0-0.3,0.1-0.4,0.4-0.5C267.2,30.8,267,30.9,266.8,31z"/>
		<path class="st222" d="M288.8,33c-0.1-0.3,0.4-0.7-0.2-0.9C289.2,32.3,289.3,32.3,288.8,33z"/>
		<path class="st222" d="M289.3,32.3c0,0.4-0.1,0.7-0.5,0.7c-0.1-0.3,0.4-0.7-0.2-0.9c0-0.2-0.1-0.5,0.1-0.7
			c0.3,0.1-0.1,0.6,0.4,0.6C289.3,32.1,289.4,32.1,289.3,32.3z"/>
		<path class="st222" d="M286.7,30.1c-0.1-0.1-0.4,0-0.5-0.2c0-0.1,0.1-0.2,0.2-0.2c0.3-0.1,0.4,0,0.4,0.3
			C286.9,30.1,286.9,30.1,286.7,30.1z"/>
		<path class="st222" d="M289.3,32.3c-0.1-0.1-0.1-0.2-0.2-0.4c0.1-0.1,0.2-0.5,0.3-0.4C289.7,31.8,289.7,32.2,289.3,32.3z"/>
		<path class="st222" d="M286.7,30.1c0-0.1,0.1-0.1,0.1-0.2c0.2,0.1,0.4,0.2,0.2,0.4c-0.1,0.1-0.2,0.1-0.3,0.1
			C286.8,30.3,286.8,30.2,286.7,30.1z"/>
		<path class="st222" d="M269.5,28.3c-0.1-0.4,0.2-0.6,0.4-0.9c0.6,0.1,0.1,0.5,0.2,0.7C269.9,28.3,269.7,28.5,269.5,28.3
			L269.5,28.3z"/>
		<path class="st222" d="M270.9,28.5c0-0.5,0.1-0.7,0.4-0.8C271.5,28.1,271.2,28.2,270.9,28.5z"/>
		<path class="st222" d="M269.5,28.3c0.2-0.1,0.3-0.1,0.5-0.2c0,0.1,0,0.2,0,0.3c-0.2,0-0.3,0.3-0.5,0
			C269.5,28.4,269.5,28.4,269.5,28.3z"/>
		<path class="st222" d="M274.6,32.7C274.6,32.7,274.6,32.7,274.6,32.7C274.6,32.7,274.6,32.7,274.6,32.7
			C274.6,32.8,274.6,32.8,274.6,32.7L274.6,32.7C274.6,32.8,274.6,32.8,274.6,32.7z"/>
		<path class="st222" d="M276.4,32.7c0,0,0,0.1,0,0.1c0,0.1,0,0.1,0,0.2c0,0,0,0,0,0.1V33c0-0.1,0-0.1,0-0.2
			C276.3,32.7,276.4,32.7,276.4,32.7z"/>
		<path class="st222" d="M276.8,33C276.8,33,276.8,33,276.8,33c-0.2,0.1-0.3,0.1-0.5,0V33c0-0.1,0-0.1,0-0.2c0,0,0-0.1,0.1-0.1
			C276.7,32.7,276.9,32.7,276.8,33z"/>
		<path class="st222" d="M274.7,32.7C274.6,32.7,274.6,32.7,274.7,32.7c-0.1,0.1-0.1,0.1-0.1,0.2h0c0,0,0,0,0,0
			c-0.5,0-0.1-0.3-0.2-0.5c0,0,0.1,0.1,0.1,0.1C274.5,32.5,274.6,32.6,274.7,32.7z"/>
		<path class="st222" d="M295.9,30.2c0.1,0,0.3-0.2,0.3,0.1c0,0.2-0.1,0.3-0.3,0.3C295.8,30.5,295.9,30.4,295.9,30.2
			C295.9,30.2,295.9,30.2,295.9,30.2z"/>
		<path class="st222" d="M274.5,30.6c-0.1,0-0.2,0-0.3,0c0.1-0.2,0-0.7,0.5-0.5C274.6,30.2,274.6,30.4,274.5,30.6z"/>
		<path class="st222" d="M294.3,34.1c-0.1,0.1-0.1,0.2-0.2,0.2c0,0-0.1-0.1-0.1-0.2c0.1,0,0.1-0.1,0.2-0.1
			C294.3,34,294.3,34,294.3,34.1z"/>
		<path class="st222" d="M274.9,29.6c-0.2,0-0.4-0.1-0.2-0.4c0.1-0.1,0.3-0.1,0.3-0.1C275.2,29.3,274.8,29.4,274.9,29.6L274.9,29.6z
			"/>
		<path class="st222" d="M292.3,29.6c0.2,0,0.3,0.1,0.3,0.4C292.2,30.1,292.3,29.7,292.3,29.6z"/>
		<path class="st253" d="M254.2,31.6c0.3,0.9,0.1,1.2-0.8,1.3c-0.2,0-0.4,0.1-0.6,0.1c-1.3,0.1-1.3,0.1-1.3-1.2
			c0-0.6,0.1-0.8,0.7-0.7c0.6,0.1,1.3-0.1,1.9,0.4C254.2,31.5,254.2,31.5,254.2,31.6C254.2,31.6,254.2,31.6,254.2,31.6z"/>
		<path class="st254" d="M252.1,29.8c-1,0-0.4-0.7-0.5-1.1c-0.1-0.5,0.3-0.4,0.6-0.4c0.1,0,0.3,0,0.4,0c0.6-0.3,1.1-0.3,1.4,0.4
			c0.1,0.6,0,1.1-0.7,1.2C252.9,29.8,252.5,30,252.1,29.8z"/>
		<path class="st224" d="M254,28.6c-0.4-0.5-0.9-0.3-1.4-0.4c0.2-0.8,0.9-1,1.6-1c0.1,0.2,0.2,0.5,0.4,0.7
			C254.5,28.2,254.1,28.3,254,28.6z"/>
		<path class="st255" d="M254.8,33c-0.2,0.1-0.3,0.2-0.5,0.4c-0.2-0.6,0.4-0.8,0.7-1c0.2-0.2,0.7-0.3,0.9,0.2
			c-0.1,0.1-0.1,0.1-0.2,0.2C255.4,32.8,255.1,32.8,254.8,33z"/>
		<path class="st256" d="M254.2,31.6c0-0.1,0-0.1,0-0.2c0,0,0.1-0.1,0.1-0.1c0.1-0.2,0-0.6,0.4-0.5c0.2,0,0.2,0.2,0.2,0.3
			C254.7,31.4,254.7,31.9,254.2,31.6z"/>
		<path class="st248" d="M252.1,29.8c0.4,0,0.8,0,1.2,0c-0.4,0.2-0.9,0.2-1.2,0.7C251.8,30.2,252.1,30,252.1,29.8z"/>
		<path class="st257" d="M250,30.2c-0.3-0.2-0.1-0.4-0.2-0.7c0.4,0,0.5-0.4,0.9-0.5C250.6,29.6,250,29.7,250,30.2z"/>
		<path class="st258" d="M250.5,30.3c0-0.1-0.1-0.1-0.1-0.2c0.1-0.1,0.1-0.2,0.2-0.2c0.1,0,0.1,0.1,0.1,0.1
			C250.6,30.2,250.5,30.3,250.5,30.3z"/>
		<path class="st258" d="M235,29.7c0.6,0.2-0.2,0.6,0.2,0.8c-0.4,0-0.7,0-1.1,0C234.3,30.2,234.7,30,235,29.7z"/>
		<path class="st259" d="M233.4,32.3c-0.1,0-0.1,0-0.2,0c-0.2-0.5,0.2-0.4,0.5-0.5C233.6,32,233.5,32.2,233.4,32.3z"/>
		<path class="st234" d="M234.4,32.7c0.3,0.3,0,0.3-0.2,0.5C234.1,33,234.5,32.9,234.4,32.7z"/>
		<path class="st260" d="M245.8,22.9c0.3-0.2,0.1-0.6,0.5-0.8c0,0.1,0.1,0.3,0.1,0.4c0,0.2,0.3,0.3,0,0.5
			C246.2,23.2,245.9,23.2,245.8,22.9z"/>
		<path class="st261" d="M243.1,22.1c-0.2,0.5-0.6,0.5-1,0.5c-0.6,0-0.2-0.5-0.4-0.7C242.2,21.3,242.6,21.4,243.1,22.1z"/>
		<path class="st157" d="M254.8,33c0.1-0.6,0.5-0.4,0.8-0.3C255.4,32.8,255.1,32.9,254.8,33z"/>
	</g>
	<g>
		<path class="st222" d="M110.2,36.4c-0.1,0-0.2,0.1-0.3,0.1c-0.1,0.1-0.2,0.1-0.3,0.2l7.4-9.9c0.2-0.2,0.3-0.5,0.4-0.8
			c0.1-0.3,0.1-0.6,0.1-0.9v-1.7h-12.6V27h7.3l-7,9.3c-0.2,0.2-0.3,0.4-0.4,0.6l-5.8-13.4h-3.2l-6.5,14.9V23.5h-4.1
			c-0.2,0-0.5,0-0.7,0.1c-0.2,0.1-0.5,0.2-0.7,0.3c-0.2,0.1-0.4,0.3-0.5,0.5c-0.2,0.2-0.3,0.4-0.4,0.6l-2.8,8.2
			c-0.1,0.1-0.1,0.3-0.1,0.4c0,0.2-0.1,0.3-0.1,0.4c0,0.2,0,0.3-0.1,0.5c0-0.2,0-0.3-0.1-0.5c0-0.1-0.1-0.3-0.1-0.4
			c0-0.2-0.1-0.3-0.1-0.4l-2.9-8.2c-0.1-0.2-0.2-0.4-0.3-0.6c-0.2-0.2-0.3-0.3-0.5-0.5c-0.2-0.1-0.4-0.2-0.7-0.3
			c-0.2-0.1-0.5-0.1-0.8-0.1h-4.1v14.7l-6.4-14.7h-1l-6.5,14.9c-0.1,0.2-0.2,0.4-0.4,0.6c-0.2,0.2-0.3,0.3-0.5,0.5
			c-0.2,0.1-0.4,0.2-0.6,0.3c-0.2,0.1-0.5,0.1-0.7,0.1H56c0.2,0,0.5,0,0.7-0.1c0.2-0.1,0.5-0.2,0.7-0.3c0.2-0.1,0.4-0.3,0.6-0.5
			c0.2-0.2,0.3-0.4,0.4-0.6l0.8-1.8h6.5l0.8,1.8c0.1,0.2,0.2,0.4,0.4,0.6c0.2,0.2,0.3,0.3,0.5,0.5c0.2,0.1,0.4,0.2,0.6,0.3
			c0.2,0.1,0.5,0.1,0.7,0.1h1.7h0.7h3V28.9l4.2,10.9h3.2l4.1-10.9v10.9h3.1l0,0h2.4c0.2,0,0.5,0,0.7-0.1c0.2-0.1,0.5-0.2,0.7-0.3
			c0.2-0.1,0.4-0.3,0.6-0.5c0.2-0.2,0.3-0.4,0.4-0.6l0.8-1.8h6.5l0.8,1.8c0.1,0.2,0.2,0.4,0.4,0.6c0.2,0.2,0.3,0.3,0.5,0.5
			c0.2,0.1,0.4,0.2,0.6,0.3c0.2,0.1,0.5,0.1,0.7,0.1h0.8h1.6h11.2v-3.5h-6.9C110.4,36.4,110.3,36.4,110.2,36.4z M60.6,33.2l1.4-3.4
			c0.1-0.2,0.1-0.3,0.2-0.4c0-0.1,0.1-0.3,0.1-0.4c0-0.1,0.1-0.2,0.1-0.4c0,0.1,0,0.2,0.1,0.3c0,0.1,0.1,0.2,0.1,0.4
			c0,0.1,0.1,0.3,0.2,0.4l1.4,3.4H60.6z M95.8,33.2l1.4-3.4c0.1-0.2,0.1-0.3,0.2-0.4c0-0.1,0.1-0.3,0.1-0.4c0-0.1,0.1-0.2,0.1-0.4
			c0,0.1,0,0.2,0.1,0.3c0,0.1,0.1,0.2,0.1,0.4c0,0.1,0.1,0.3,0.2,0.4l1.4,3.4H95.8z M123,22.3h-2.2l2.3-3.4c0.2-0.3,0.4-0.5,0.8-0.6
			c0.3-0.1,0.7-0.2,1.1-0.2h0.5c0.9,0,1.5,0.3,1.9,0.8l2.3,3.4h-2.2c-0.2,0-0.4,0-0.6-0.1c-0.2-0.1-0.4-0.2-0.5-0.3
			c-0.2-0.1-0.3-0.3-0.4-0.4c-0.1-0.2-0.2-0.3-0.3-0.4l-0.4-0.5l-0.4,0.4c-0.1,0.1-0.2,0.3-0.3,0.4c-0.1,0.2-0.3,0.3-0.4,0.4
			c-0.2,0.1-0.3,0.3-0.5,0.4C123.4,22.3,123.2,22.3,123,22.3z M132.4,27.4c-0.4-0.6-0.8-1.2-1.3-1.7c-0.5-0.5-1.1-0.9-1.7-1.3
			c-0.6-0.4-1.3-0.6-2-0.8c-0.7-0.2-1.5-0.3-2.2-0.3c-0.8,0-1.5,0.1-2.2,0.3c-0.7,0.2-1.4,0.5-2,0.8c-0.6,0.4-1.2,0.8-1.7,1.3
			c-0.5,0.5-0.9,1.1-1.3,1.7c-0.4,0.6-0.6,1.3-0.9,2c-0.2,0.7-0.3,1.5-0.3,2.2c0,0.8,0.1,1.5,0.3,2.2c0.2,0.7,0.5,1.4,0.9,2
			c0.4,0.6,0.8,1.2,1.3,1.7c0.5,0.5,1.1,0.9,1.7,1.3c0.6,0.4,1.3,0.6,2,0.8c0.7,0.2,1.5,0.3,2.2,0.3c0.8,0,1.5-0.1,2.2-0.3
			c0.7-0.2,1.4-0.5,2-0.8c0.6-0.4,1.2-0.8,1.7-1.3c0.5-0.5,0.9-1.1,1.3-1.7c0.4-0.6,0.6-1.3,0.9-2c0.2-0.7,0.3-1.5,0.3-2.2
			c0-0.8-0.1-1.5-0.3-2.2C133,28.7,132.7,28.1,132.4,27.4z M129.4,33.4c-0.3,0.6-0.6,1-1,1.5c-0.4,0.4-0.9,0.7-1.5,1
			c-0.6,0.2-1.2,0.4-1.8,0.4c-0.6,0-1.2-0.1-1.8-0.4c-0.6-0.2-1.1-0.6-1.5-1c-0.4-0.4-0.8-0.9-1-1.5c-0.3-0.6-0.4-1.2-0.4-1.8
			c0-0.6,0.1-1.2,0.4-1.8c0.3-0.6,0.6-1,1-1.5c0.4-0.4,0.9-0.7,1.5-1c0.6-0.2,1.2-0.4,1.8-0.4c0.6,0,1.2,0.1,1.8,0.4
			c0.6,0.2,1.1,0.6,1.5,1c0.4,0.4,0.8,0.9,1,1.5c0.3,0.6,0.4,1.2,0.4,1.8C129.8,32.3,129.7,32.9,129.4,33.4z M145.9,23.5h3.7v16.4
			h-3.7l-7.8-11.3v11.3h-3.7V23.5h3.7c0.4,0,0.7,0.1,1,0.2c0.3,0.1,0.5,0.3,0.7,0.5l5.7,8.4c0.1,0.1,0.2,0.3,0.2,0.4
			c0.1,0.1,0.1,0.3,0.2,0.4c0,0.1,0.1,0.2,0.1,0.3c0,0.1,0,0.1,0,0.2V23.5z M151.8,23.5h3.7v16.4h-3.7V23.5z M180.6,23.5h-3.2
			l-5.7,13l-0.8-0.8c-0.2-0.2-0.5-0.4-0.8-0.5c-0.3-0.1-0.6-0.2-1-0.2c-0.5,0-1,0.1-1.4,0.4c-0.4,0.3-0.8,0.5-1.2,0.6
			c-0.4,0.1-0.9,0.2-1.4,0.2c-0.6,0-1.2-0.1-1.8-0.4c-0.6-0.2-1.1-0.6-1.5-1c-0.4-0.4-0.8-0.9-1-1.5c-0.3-0.6-0.4-1.2-0.4-1.8
			c0-0.6,0.1-1.2,0.4-1.8c0.3-0.6,0.6-1,1-1.5c0.4-0.4,0.9-0.7,1.5-1c0.6-0.2,1.2-0.4,1.8-0.4c0.5,0,0.9,0.1,1.4,0.2
			s0.8,0.3,1.2,0.6c0.4,0.3,0.9,0.4,1.4,0.4c0.4,0,0.7-0.1,1-0.2c0.3-0.1,0.6-0.3,0.8-0.5l1-1c-0.5-0.5-1-1-1.5-1.4
			c-0.5-0.4-1.1-0.7-1.6-1c-0.6-0.3-1.2-0.5-1.8-0.7c-0.6-0.2-1.2-0.2-1.8-0.2c-0.8,0-1.5,0.1-2.2,0.3c-0.7,0.2-1.4,0.5-2,0.8
			c-0.6,0.4-1.2,0.8-1.7,1.3c-0.5,0.5-0.9,1.1-1.3,1.7c-0.4,0.6-0.6,1.3-0.9,2c-0.2,0.7-0.3,1.5-0.3,2.2c0,0.8,0.1,1.5,0.3,2.2
			c0.2,0.7,0.5,1.4,0.9,2c0.4,0.6,0.8,1.2,1.3,1.7c0.5,0.5,1.1,0.9,1.7,1.3c0.6,0.4,1.3,0.6,2,0.8c0.7,0.2,1.5,0.3,2.2,0.3
			c0.6,0,1.2-0.1,1.8-0.2c0.6-0.2,1.2-0.4,1.8-0.7c0.6-0.3,1.1-0.6,1.6-1c0.3-0.3,0.6-0.5,0.9-0.8l-1.1,2.6h2.4c0.2,0,0.5,0,0.7-0.1
			c0.2-0.1,0.5-0.2,0.7-0.3s0.4-0.3,0.6-0.5c0.2-0.2,0.3-0.4,0.4-0.6l0.8-1.8h6.5l0.8,1.8c0.1,0.2,0.2,0.4,0.4,0.6
			c0.2,0.2,0.3,0.3,0.5,0.5c0.2,0.1,0.4,0.2,0.6,0.3c0.2,0.1,0.5,0.1,0.7,0.1h2.4L180.6,23.5z M177.2,33.2l1.4-3.4
			c0.1-0.2,0.1-0.3,0.2-0.4c0-0.1,0.1-0.3,0.1-0.4c0-0.1,0.1-0.2,0.1-0.4c0,0.1,0,0.2,0.1,0.3c0,0.1,0.1,0.2,0.1,0.4
			c0,0.1,0.1,0.3,0.2,0.4l1.4,3.4H177.2z"/>
		<path class="st222" d="M61.7,23.5l-6.5,14.9c-0.1,0.2-0.2,0.4-0.4,0.6c-0.2,0.2-0.3,0.3-0.5,0.5c-0.2,0.1-0.4,0.2-0.6,0.3
			c-0.2,0.1-0.5,0.1-0.7,0.1h-0.6H51v0h-8.6V23.5h9.9v1.9h-8.1v5.3h6.5v1.9h-6.5V38h7.5l5.7-13.1c0.2-0.4,0.5-0.8,0.8-1
			c0.1-0.1,0.3-0.2,0.5-0.3c0,0,0.1,0,0.1,0c0,0,0.1,0,0.1,0c0.1,0,0.1,0,0.2,0c0,0,0.1,0,0.1,0c0.1,0,0.1,0,0.2,0h0H61.7z
			 M8.6,32.1c0.4-0.3,0.8-0.6,1.1-1c0.3-0.4,0.6-0.9,0.7-1.4c0.2-0.5,0.3-1,0.3-1.6c0-0.6-0.1-1.3-0.4-1.8c-0.2-0.6-0.6-1.1-1-1.5
			c-0.4-0.4-0.9-0.8-1.5-1c-0.6-0.2-1.2-0.4-1.8-0.4H0.2v16.4h1.8v-7h2.9l4.5,6.1c0.2,0.3,0.5,0.6,0.8,0.7c0.3,0.2,0.7,0.2,1.1,0.2
			h1.1l-5.3-7.1C7.7,32.6,8.1,32.4,8.6,32.1z M6,31h-4v-5.7h4c0.4,0,0.8,0.1,1.1,0.2c0.3,0.1,0.6,0.4,0.9,0.6
			c0.3,0.3,0.5,0.6,0.6,0.9c0.1,0.3,0.2,0.7,0.2,1.1c0,0.4-0.1,0.8-0.2,1.1c-0.1,0.3-0.4,0.6-0.6,0.9c-0.3,0.3-0.6,0.5-0.9,0.6
			C6.8,30.9,6.4,31,6,31z M13.8,23.5h9.9v1.9h-8.1v5.3h6.5v1.9h-6.5V38h8.1v1.8h-9.9V23.5z M39.2,27.5c-0.4-0.6-0.8-1.2-1.3-1.7
			c-0.5-0.5-1.1-0.9-1.7-1.3c-0.6-0.4-1.3-0.6-2-0.8c-0.7-0.2-1.4-0.3-2.2-0.3h-6.1v16.4h6.1c0.8,0,1.5-0.1,2.2-0.3
			c0.7-0.2,1.3-0.5,2-0.8c0.6-0.4,1.2-0.8,1.7-1.3c0.5-0.5,0.9-1.1,1.3-1.7c0.4-0.6,0.6-1.3,0.8-2c0.2-0.7,0.3-1.4,0.3-2.2
			s-0.1-1.5-0.3-2.2C39.9,28.8,39.6,28.1,39.2,27.5z M38,34.1c-0.3,0.8-0.8,1.4-1.4,2c-0.6,0.6-1.2,1-2,1.4C33.9,37.8,33,38,32.2,38
			h-4.2V25.3h4.2c0.9,0,1.7,0.2,2.5,0.5c0.8,0.3,1.4,0.8,2,1.4c0.6,0.6,1,1.2,1.4,2c0.3,0.8,0.5,1.6,0.5,2.5
			C38.5,32.5,38.3,33.4,38,34.1z"/>
		<path class="st222" d="M8,13.9v3.5c-0.2,0.2-0.4,0.3-0.7,0.5C7,18,6.8,18.1,6.5,18.2c-0.3,0.1-0.6,0.1-0.9,0.2c-0.3,0-0.6,0-0.9,0
			c-0.6,0-1.3-0.1-1.8-0.4c-0.6-0.2-1.1-0.6-1.5-1c-0.4-0.4-0.8-0.9-1-1.5C0.1,14.9,0,14.3,0,13.7c0-0.6,0.1-1.3,0.4-1.8
			c0.2-0.6,0.6-1.1,1-1.5c0.4-0.4,0.9-0.8,1.5-1C3.4,9.1,4,9,4.7,9c0.6,0,1.2,0.1,1.8,0.3c0.6,0.2,1,0.6,1.5,1l-0.1,0.1
			c-0.1,0.1-0.2,0.1-0.3,0.2c-0.1,0-0.2,0.1-0.3,0.1c-0.1,0-0.3,0-0.4-0.1c-0.3-0.2-0.7-0.4-1-0.5C5.5,9.9,5.1,9.8,4.7,9.8
			c-0.4,0-0.7,0-1,0.1C3.3,10,3,10.2,2.7,10.3c-0.3,0.2-0.5,0.4-0.8,0.6c-0.2,0.2-0.4,0.5-0.6,0.8C1.2,12,1,12.3,0.9,12.6
			c-0.1,0.3-0.1,0.7-0.1,1c0,0.4,0,0.7,0.1,1C1,15,1.2,15.3,1.3,15.6c0.2,0.3,0.4,0.6,0.6,0.8c0.2,0.2,0.5,0.4,0.8,0.6
			c0.3,0.2,0.6,0.3,0.9,0.4c0.3,0.1,0.7,0.1,1,0.1c0.4,0,0.9-0.1,1.3-0.2c0.4-0.1,0.8-0.3,1.2-0.5v-2.2H6.4c-0.1,0-0.2,0-0.3-0.1
			c-0.1,0-0.2-0.1-0.2-0.2c-0.1-0.1-0.1-0.2-0.2-0.2c0-0.1-0.1-0.2-0.1-0.3v0H8z M13.2,18.2h-0.8V9.1h3.2c0.4,0,0.7,0.1,1,0.2
			c0.3,0.1,0.6,0.3,0.8,0.5c0.2,0.2,0.4,0.5,0.5,0.8c0.1,0.3,0.2,0.6,0.2,1c0,0.3-0.1,0.6-0.2,0.9c-0.1,0.3-0.3,0.6-0.4,0.8
			c-0.2,0.2-0.4,0.4-0.7,0.6c-0.3,0.2-0.6,0.2-0.9,0.3l3,4h-0.4c-0.4,0-0.8-0.2-1-0.5L15,14.2h-1.8V18.2z M13.2,9.9v3.5h2.4
			c0.2,0,0.5,0,0.7-0.1c0.2-0.1,0.4-0.2,0.6-0.4c0.2-0.2,0.3-0.3,0.4-0.6c0.1-0.2,0.1-0.4,0.1-0.7c0-0.2,0-0.5-0.1-0.7
			c-0.1-0.2-0.2-0.4-0.4-0.6c-0.2-0.2-0.3-0.3-0.6-0.4c-0.2-0.1-0.4-0.1-0.7-0.1H13.2z M23,14.7c0,0.4,0.1,0.8,0.2,1.1
			c0.1,0.3,0.4,0.6,0.6,0.9c0.3,0.3,0.6,0.5,0.9,0.6c0.3,0.1,0.7,0.2,1.1,0.2c0.4,0,0.8-0.1,1.1-0.2c0.3-0.1,0.6-0.4,0.9-0.6
			c0.3-0.3,0.5-0.6,0.6-0.9c0.1-0.3,0.2-0.7,0.2-1.1V9.1h0.8v5.6c0,0.5-0.1,1-0.3,1.4c-0.2,0.4-0.4,0.8-0.8,1.2
			c-0.3,0.3-0.7,0.6-1.2,0.8c-0.4,0.2-0.9,0.3-1.4,0.3c-0.5,0-1-0.1-1.4-0.3c-0.4-0.2-0.8-0.4-1.2-0.8c-0.3-0.3-0.6-0.7-0.8-1.2
			c-0.2-0.4-0.3-0.9-0.3-1.4V9.1H23V14.7z M34.8,18.2H34V9.1h3.2c0.4,0,0.7,0.1,1.1,0.2c0.3,0.1,0.6,0.3,0.9,0.6
			c0.3,0.3,0.4,0.5,0.6,0.9c0.1,0.3,0.2,0.7,0.2,1.1s-0.1,0.7-0.2,1.1c-0.1,0.3-0.3,0.6-0.6,0.9c-0.3,0.2-0.5,0.4-0.9,0.6
			c-0.3,0.1-0.7,0.2-1.1,0.2h-2.4V18.2z M37.2,13.9c0.3,0,0.5-0.1,0.8-0.2c0.2-0.1,0.4-0.2,0.6-0.4c0.2-0.2,0.3-0.4,0.4-0.6
			c0.1-0.2,0.2-0.5,0.2-0.8c0-0.3-0.1-0.5-0.2-0.8c-0.1-0.2-0.2-0.4-0.4-0.6c-0.2-0.2-0.4-0.3-0.6-0.4c-0.2-0.1-0.5-0.2-0.8-0.2
			h-2.4v3.9H37.2z M43.3,13.7c0-0.6,0.1-1.3,0.4-1.8c0.2-0.6,0.6-1.1,1-1.5c0.4-0.4,0.9-0.8,1.5-1C46.7,9.1,47.3,9,48,9
			c0.6,0,1.3,0.1,1.8,0.4c0.6,0.2,1.1,0.6,1.5,1c0.4,0.4,0.8,0.9,1,1.5c0.2,0.6,0.4,1.2,0.4,1.8c0,0.6-0.1,1.3-0.4,1.8
			c-0.2,0.6-0.6,1.1-1,1.5c-0.4,0.4-0.9,0.8-1.5,1c-0.6,0.2-1.2,0.4-1.8,0.4c-0.6,0-1.3-0.1-1.8-0.4c-0.6-0.2-1.1-0.6-1.5-1
			c-0.4-0.4-0.8-0.9-1-1.5C43.4,14.9,43.3,14.3,43.3,13.7z M44.1,13.7c0,0.4,0,0.7,0.1,1c0.1,0.3,0.2,0.6,0.4,0.9
			c0.2,0.3,0.4,0.6,0.6,0.8c0.2,0.2,0.5,0.4,0.8,0.6c0.3,0.2,0.6,0.3,0.9,0.4c0.3,0.1,0.7,0.1,1,0.1c0.4,0,0.7,0,1-0.1
			c0.3-0.1,0.6-0.2,0.9-0.4c0.3-0.2,0.6-0.4,0.8-0.6c0.2-0.2,0.4-0.5,0.6-0.8c0.2-0.3,0.3-0.6,0.4-0.9c0.1-0.3,0.1-0.7,0.1-1
			c0-0.5-0.1-1-0.3-1.5c-0.2-0.5-0.5-0.9-0.8-1.2c-0.4-0.4-0.8-0.6-1.2-0.8c-0.5-0.2-1-0.3-1.5-0.3c-0.4,0-0.7,0-1,0.1
			c-0.3,0.1-0.6,0.2-0.9,0.4s-0.5,0.4-0.8,0.6c-0.2,0.2-0.4,0.5-0.6,0.8c-0.2,0.3-0.3,0.6-0.4,0.9C44.1,13,44.1,13.3,44.1,13.7z"/>
	</g>
	<g>
		<path class="st222" d="M211.2,29.6c0,1.7-0.7,2.5-2.5,3.7l1.8,1.8c0.1-0.4,0.3-1.7,0.4-2.4l2.4,0.1c-0.2,1.3-0.6,2.9-0.9,3.8
			l2.1,1.8L213,40l-2-1.6c-0.8,0.9-2.2,1.6-3.8,1.6c-3.8,0-5-1.4-5-3.9c0-2.1,0.9-3.1,2.6-3.8c-1-1.2-1.2-1.8-1.2-3
			c0-1.7,1.5-2.8,3.8-2.8C209.9,26.6,211.2,27.6,211.2,29.6z M209.3,37l-3.2-3.2c-0.9,0.4-1.4,1.1-1.4,2.1c0,1.2,0.7,1.8,2.2,1.8
			C207.9,37.8,208.9,37.5,209.3,37z M207,31.6l0.3,0.3c1-0.7,1.4-1.2,1.4-2c0-0.9-0.4-1.2-1.3-1.2c-0.8,0-1.3,0.4-1.3,1.2
			C206.1,30.5,206.4,31,207,31.6z"/>
	</g>
</g>
<g id="Camada_5">
</g>
<g id="Camada_4" class="st263">
</g>
</svg>
