<?xml version="1.0" encoding="utf-8"?>
<!-- Generator: Adobe Illustrator 22.0.0, SVG Export Plug-In . SVG Version: 6.00 Build 0)  -->
<svg version="1.1" xmlns="http://www.w3.org/2000/svg" xmlns:xlink="http://www.w3.org/1999/xlink" x="0px" y="0px"
	 viewBox="0 0 387.9 40" style="enable-background:new 0 0 387.9 40;" xml:space="preserve">
<style type="text/css">
	.st0{opacity:0.6;fill:url(#SVGID_1_);}
	.st1{fill:#70B634;}
	.st2{opacity:0.3;}
	.st3{fill:#0E9338;}
	.st4{fill:#E3EBDD;}
	.st5{opacity:0.7;fill:#E3EBDD;}
	.st6{fill:#ABCA34;}
	.st7{opacity:0.9;fill:#FFFFFF;}
	.st8{opacity:0.4;}
	.st9{fill:#30A836;}
	.st10{opacity:0.5;}
	.st11{fill:#D0C2BA;}
	.st12{fill:#A48A7B;}
	.st13{fill:#3AAA35;}
	.st14{fill:#D3D800;}
	.st15{fill:#AFCA0B;}
	.st16{fill:#B8ADA2;}
	.st17{fill:#7B6A58;}
	.st18{fill:#00572B;}
	.st19{fill:#008332;}
	.st20{fill:#4CA22F;}
	.st21{fill:#94B722;}
	.st22{opacity:0.33;fill:url(#SVGID_2_);}
	.st23{fill:#DBC24E;}
	.st24{fill:#FFEE97;}
	.st25{fill:#D2C8D0;}
	.st26{fill:#AA9DA0;}
	.st27{fill:#81818E;}
	.st28{fill:#B9B9C6;}
	.st29{fill:#FFFFFF;}
	.st30{fill:url(#SVGID_3_);}
	.st31{fill:url(#SVGID_4_);}
	.st32{fill:#9E9DA9;}
	.st33{fill:url(#SVGID_5_);}
	.st34{fill:#E9E3E4;}
	.st35{fill:#BB978E;}
	.st36{fill:#896559;}
	.st37{fill:#75230E;}
	.st38{fill:#D5D4D4;}
	.st39{fill:#C7B8A5;}
	.st40{fill:#F0F0E3;}
	.st41{fill:#F8F8F9;}
	.st42{fill:#55514F;}
	.st43{fill:#3B3835;}
	.st44{fill:#EEE9EA;}
	.st45{fill:#8D8388;}
	.st46{fill:#858491;}
	.st47{fill:url(#SVGID_6_);}
	.st48{fill:url(#SVGID_7_);}
	.st49{fill:#999999;}
	.st50{fill:url(#SVGID_8_);}
	.st51{fill:url(#SVGID_9_);}
	.st52{fill:url(#SVGID_10_);}
	.st53{fill:url(#SVGID_11_);}
	.st54{fill:url(#SVGID_12_);}
	.st55{fill:#706E7B;}
	.st56{fill:#CACDC8;}
	.st57{fill:#AEAEBA;}
	.st58{fill:#E5E4D2;}
	.st59{fill:#D3CDCC;}
	.st60{fill:#FBF7F8;}
	.st61{fill:#C8C8D5;}
	.st62{fill:#BCBCC9;}
	.st63{fill:url(#SVGID_13_);}
	.st64{fill:url(#SVGID_14_);}
	.st65{fill:url(#SVGID_15_);}
	.st66{fill:#DF6710;}
	.st67{fill:#B15418;}
	.st68{fill:url(#SVGID_16_);}
	.st69{fill:url(#SVGID_17_);}
	.st70{fill:#A74B18;}
	.st71{fill:url(#SVGID_18_);}
	.st72{fill:url(#SVGID_19_);}
	.st73{fill:url(#SVGID_20_);}
	.st74{fill:url(#SVGID_21_);}
	.st75{fill:url(#SVGID_22_);}
	.st76{fill:#AFCB3A;}
	.st77{opacity:0.33;fill:url(#SVGID_23_);}
	.st78{fill:url(#SVGID_24_);}
	.st79{fill:url(#SVGID_25_);}
	.st80{fill:url(#SVGID_26_);}
	.st81{fill:url(#SVGID_27_);}
	.st82{fill:#E3051A;}
	.st83{fill:#A91917;}
	.st84{fill:#7E170F;}
	.st85{fill:url(#SVGID_28_);}
	.st86{fill:url(#SVGID_29_);}
	.st87{fill:#282727;}
	.st88{fill:#575756;}
	.st89{fill:#9D9D9C;}
	.st90{fill:#3C3C3B;}
	.st91{fill:#C6C6C6;}
	.st92{fill:#EDEDED;}
	.st93{fill:#E94E1B;}
	.st94{fill:#83929B;}
	.st95{fill:#C5DCEA;}
	.st96{fill:#5D5143;}
	.st97{fill:#DADADA;}
	.st98{fill:#878787;}
	.st99{opacity:0.33;fill:url(#SVGID_30_);}
	.st100{fill:#88CDD3;}
	.st101{fill:#E3E3E3;}
	.st102{fill:#75B0B5;}
	.st103{fill:#F9B233;}
	.st104{fill:#E6332A;}
	.st105{fill:#F39200;}
	.st106{fill:#BDB5DA;}
	.st107{opacity:0.33;fill:url(#SVGID_31_);}
	.st108{fill:url(#SVGID_32_);}
	.st109{fill:url(#SVGID_33_);}
	.st110{fill:url(#SVGID_34_);}
	.st111{fill:url(#SVGID_35_);}
	.st112{fill:url(#SVGID_36_);}
	.st113{fill:url(#SVGID_37_);}
	.st114{fill:url(#SVGID_38_);}
	.st115{fill:url(#SVGID_39_);}
	.st116{fill:url(#SVGID_40_);}
	.st117{fill:#6298D1;}
	.st118{fill:#3971AE;}
	.st119{fill:#39ABE2;}
	.st120{fill:url(#SVGID_41_);}
	.st121{fill:url(#SVGID_42_);}
	.st122{fill:url(#SVGID_43_);}
	.st123{fill:url(#SVGID_44_);}
	.st124{fill:url(#SVGID_45_);}
	.st125{fill:url(#SVGID_46_);}
	.st126{fill:url(#SVGID_47_);}
	.st127{fill:url(#SVGID_48_);}
	.st128{fill:url(#SVGID_49_);}
	.st129{fill:url(#SVGID_50_);}
	.st130{fill:url(#SVGID_51_);}
	.st131{fill:url(#SVGID_52_);}
	.st132{fill:url(#SVGID_53_);}
	.st133{fill:#DE1533;}
	.st134{fill:#E8B91E;}
	.st135{fill:#4B9B35;}
	.st136{fill:#C41722;}
	.st137{fill:#E6311F;}
	.st138{fill:#3ABBE4;}
	.st139{fill:#FBC500;}
	.st140{fill:#A6183B;}
	.st141{fill:#EB601E;}
	.st142{fill:#DA035E;}
	.st143{fill:#F59C1E;}
	.st144{fill:#CD9B0E;}
	.st145{fill:#3F7C3C;}
	.st146{fill:#2295D3;}
	.st147{fill:#5EB130;}
	.st148{fill:#00629B;}
	.st149{fill:#1D4467;}
	.st150{fill:#2B4265;}
	.st151{opacity:0.9;fill:#2B4265;}
	.st152{fill:none;stroke:#FFFFFF;stroke-width:2;stroke-miterlimit:10;}
	.st153{fill:#F5FBFE;}
	.st154{fill:#3CBBE4;}
	.st155{fill:#3CBCE4;}
	.st156{fill:#FFFEFF;}
	.st157{fill:#FFFEFE;}
	.st158{fill:#FFFCFE;}
	.st159{fill:#FBE8F2;}
	.st160{fill:#F7C7DD;}
	.st161{fill:#F9D7E8;}
	.st162{fill:#EA74A4;}
	.st163{fill:#EC88B2;}
	.st164{fill:#F1A9CA;}
	.st165{fill:#FFFFFE;}
	.st166{fill:#FFFEFD;}
	.st167{fill:#FFFDFB;}
	.st168{fill:#FFFAF3;}
	.st169{fill:#F7A938;}
	.st170{fill:#FFFAF4;}
	.st171{fill:#F8AC43;}
	.st172{fill:#F8AC45;}
	.st173{fill:#F8AB43;}
	.st174{fill:#F7A83A;}
	.st175{fill:#F6A32F;}
	.st176{fill:#F7A636;}
	.st177{fill:#F7A737;}
	.st178{fill:#F7A839;}
	.st179{fill:#F7A83B;}
	.st180{fill:#F7A93B;}
	.st181{fill:#F7A93C;}
	.st182{fill:#F7A93D;}
	.st183{fill:#F59D20;}
	.st184{fill:#F6A129;}
	.st185{fill:#F8AC42;}
	.st186{fill:#F6A32E;}
	.st187{fill:#FFFCF7;}
	.st188{fill:#FFF2E2;}
	.st189{fill:#F9B85F;}
	.st190{fill:#F7A533;}
	.st191{fill:#FAB85D;}
	.st192{fill:#F6A027;}
	.st193{fill:#FEFEFE;}
	.st194{fill:#FCFDFB;}
	.st195{fill:#F8FBF4;}
	.st196{fill:#FBFDF9;}
	.st197{fill:#F9FBF6;}
	.st198{fill:#F7FAFC;}
	.st199{fill:#F5F8FB;}
	.st200{fill:#096AA0;}
	.st201{fill:#1170A5;}
	.st202{fill:#EDF3F9;}
	.st203{fill:#ECF3F9;}
	.st204{fill:#E0E8F2;}
	.st205{fill:#247DAE;}
	.st206{fill:#DDE7F2;}
	.st207{fill:#F2F7FB;}
	.st208{fill:#E4ECF5;}
	.st209{fill:#2473A7;}
	.st210{fill:#1F73A6;}
	.st211{fill:#C0D7E7;}
	.st212{fill:#DDEAF3;}
	.st213{fill:#BCD5E6;}
	.st214{fill:#95BCD6;}
	.st215{fill:#D8E8F2;}
	.st216{fill:#488EB9;}
	.st217{fill:#C8DDEB;}
	.st218{fill:#0F6BA1;}
	.st219{fill:#BFD7E7;}
	.st220{opacity:0.2;}
	.st221{display:none;}
	.st222{display:inline;}
	.st223{fill:#F8B400;}
	.st224{fill:#C08715;}
	.st225{opacity:0.23;fill:#13110C;}
	.st226{fill:#E9455C;}
	.st227{fill:#A32D38;}
	.st228{fill:#41BCCD;}
	.st229{fill:#15808C;}
	.st230{fill:#2D476C;}
	.st231{fill:#1C2D47;}
</style>
<g id="Camada_3">
</g>
<g id="mapa">
	
		<image style="overflow:visible;" width="426" height="178" xlink:href="941F63EE2AE61894.png"  transform="matrix(0.2247 0 0 0.2247 288.9914 0)">
	</image>
	<g>
		<path class="st29" d="M142.2,35.4c-0.1,0.1-0.3,0.1-0.4,0.2c-0.1,0.1-0.2,0.2-0.3,0.3l9.6-12.8c0.2-0.3,0.4-0.7,0.5-1
			c0.1-0.4,0.2-0.8,0.2-1.2v-2.2h-16.2v4.5h9.4l-9,12c-0.2,0.2-0.4,0.5-0.5,0.7l-7.5-17.3h-4.2l-8.4,19.2V18.7h-5.2
			c-0.3,0-0.6,0-0.9,0.1c-0.3,0.1-0.6,0.2-0.9,0.4c-0.3,0.2-0.5,0.4-0.7,0.6c-0.2,0.2-0.4,0.5-0.5,0.8l-3.7,10.6
			c-0.1,0.2-0.1,0.3-0.2,0.5c0,0.2-0.1,0.4-0.1,0.6c0,0.2-0.1,0.4-0.1,0.6c0-0.2-0.1-0.4-0.1-0.6c0-0.2-0.1-0.4-0.1-0.6
			c0-0.2-0.1-0.4-0.1-0.5L99,20.6c-0.1-0.3-0.2-0.5-0.4-0.8c-0.2-0.2-0.4-0.4-0.7-0.6c-0.3-0.2-0.5-0.3-0.9-0.4
			c-0.3-0.1-0.6-0.1-1-0.1h-5.3v19l-8.3-19h-1.3l-8.4,19.3c-0.1,0.3-0.3,0.5-0.5,0.8c-0.2,0.2-0.4,0.4-0.7,0.6
			c-0.3,0.2-0.5,0.3-0.8,0.4c-0.3,0.1-0.6,0.1-0.9,0.1h2.4c0.3,0,0.6,0,0.9-0.1c0.3-0.1,0.6-0.2,0.9-0.4c0.3-0.2,0.5-0.4,0.7-0.6
			c0.2-0.2,0.4-0.5,0.5-0.7l1-2.3h8.4l1,2.3c0.1,0.3,0.3,0.6,0.5,0.8c0.2,0.2,0.4,0.4,0.7,0.6c0.3,0.2,0.5,0.3,0.8,0.4
			c0.3,0.1,0.6,0.1,0.9,0.1h2.2h0.9h3.9V25.7l5.4,14.1h4.2l5.3-14.1v14.1h4l0,0h3.1c0.3,0,0.6,0,0.9-0.1c0.3-0.1,0.6-0.2,0.9-0.4
			c0.3-0.2,0.5-0.4,0.7-0.6s0.4-0.5,0.5-0.7l1-2.3h8.4l1,2.3c0.1,0.3,0.3,0.6,0.5,0.8c0.2,0.2,0.4,0.4,0.7,0.6
			c0.3,0.2,0.5,0.3,0.8,0.4c0.3,0.1,0.6,0.1,0.9,0.1h1h2.1h14.5v-4.5h-8.9C142.5,35.3,142.3,35.3,142.2,35.4z M78.2,31.2l1.9-4.4
			c0.1-0.2,0.1-0.4,0.2-0.6c0.1-0.2,0.1-0.3,0.1-0.5c0-0.2,0.1-0.3,0.1-0.5c0,0.1,0,0.3,0.1,0.4c0,0.1,0.1,0.3,0.1,0.5
			c0,0.2,0.1,0.4,0.2,0.6l1.8,4.4H78.2z M123.6,31.2l1.9-4.4c0.1-0.2,0.1-0.4,0.2-0.6c0.1-0.2,0.1-0.3,0.1-0.5
			c0-0.2,0.1-0.3,0.1-0.5c0,0.1,0,0.3,0.1,0.4c0,0.1,0.1,0.3,0.1,0.5c0,0.2,0.1,0.4,0.2,0.6l1.8,4.4H123.6z M158.7,17.2h-2.8l3-4.4
			c0.2-0.3,0.6-0.6,1-0.8c0.4-0.2,0.9-0.3,1.5-0.3h0.7c1.1,0,1.9,0.3,2.4,1l3,4.4h-2.8c-0.3,0-0.6-0.1-0.8-0.2
			c-0.2-0.1-0.5-0.3-0.7-0.5c-0.2-0.2-0.4-0.4-0.6-0.6c-0.2-0.2-0.3-0.4-0.4-0.5l-0.5-0.6l-0.5,0.6c-0.1,0.1-0.3,0.3-0.4,0.5
			c-0.2,0.2-0.3,0.4-0.6,0.6c-0.2,0.2-0.4,0.3-0.7,0.5C159.3,17.1,159,17.2,158.7,17.2z M170.8,23.8c-0.5-0.8-1-1.5-1.7-2.2
			c-0.7-0.7-1.4-1.2-2.2-1.7c-0.8-0.5-1.7-0.8-2.6-1.1c-0.9-0.3-1.9-0.4-2.9-0.4c-1,0-2,0.1-2.9,0.4c-0.9,0.3-1.8,0.6-2.6,1.1
			c-0.8,0.5-1.5,1-2.2,1.7c-0.7,0.7-1.2,1.4-1.7,2.2c-0.5,0.8-0.8,1.7-1.1,2.6c-0.3,0.9-0.4,1.9-0.4,2.9c0,1,0.1,1.9,0.4,2.9
			c0.3,0.9,0.6,1.8,1.1,2.6c0.5,0.8,1,1.5,1.7,2.2c0.7,0.7,1.4,1.2,2.2,1.7c0.8,0.5,1.7,0.8,2.6,1.1c0.9,0.3,1.9,0.4,2.9,0.4
			c1,0,2-0.1,2.9-0.4c0.9-0.3,1.8-0.6,2.6-1.1c0.8-0.5,1.5-1,2.2-1.7c0.7-0.7,1.2-1.4,1.7-2.2c0.5-0.8,0.8-1.7,1.1-2.6
			c0.3-0.9,0.4-1.9,0.4-2.9c0-1-0.1-1.9-0.4-2.9C171.7,25.4,171.3,24.6,170.8,23.8z M167,31.5c-0.3,0.7-0.8,1.4-1.3,1.9
			c-0.6,0.5-1.2,1-1.9,1.3c-0.7,0.3-1.5,0.5-2.3,0.5c-0.8,0-1.6-0.2-2.3-0.5c-0.7-0.3-1.4-0.7-1.9-1.3c-0.6-0.5-1-1.2-1.3-1.9
			c-0.3-0.7-0.5-1.5-0.5-2.3c0-0.8,0.2-1.6,0.5-2.3c0.3-0.7,0.8-1.4,1.3-1.9c0.5-0.5,1.2-1,1.9-1.3s1.5-0.5,2.3-0.5
			c0.8,0,1.6,0.2,2.3,0.5c0.7,0.3,1.4,0.7,1.9,1.3c0.6,0.5,1,1.2,1.3,1.9c0.3,0.7,0.5,1.5,0.5,2.3C167.5,30.1,167.3,30.8,167,31.5z
			 M188.3,18.7h4.8v21.1h-4.8l-10.1-14.6v14.6h-4.8V18.7h4.7c0.5,0,0.9,0.1,1.3,0.2c0.4,0.1,0.6,0.3,0.8,0.6l7.4,10.8
			c0.1,0.2,0.2,0.3,0.3,0.5c0.1,0.2,0.1,0.4,0.2,0.5c0.1,0.2,0.1,0.3,0.1,0.4c0,0.1,0,0.2,0,0.2V18.7z M195.9,18.7h4.8v21.1h-4.8
			V18.7z M233,18.7h-4.2l-7.3,16.8l-1-1c-0.3-0.3-0.6-0.5-1-0.7c-0.4-0.2-0.8-0.2-1.3-0.2c-0.7,0-1.2,0.2-1.8,0.5
			c-0.5,0.3-1,0.6-1.6,0.8c-0.6,0.2-1.1,0.3-1.8,0.3c-0.8,0-1.6-0.2-2.3-0.5c-0.7-0.3-1.4-0.7-1.9-1.3c-0.6-0.5-1-1.2-1.3-1.9
			c-0.3-0.7-0.5-1.5-0.5-2.3c0-0.8,0.2-1.6,0.5-2.3c0.3-0.7,0.8-1.4,1.3-1.9c0.6-0.5,1.2-1,1.9-1.3s1.5-0.5,2.3-0.5
			c0.6,0,1.2,0.1,1.8,0.3c0.6,0.2,1.1,0.4,1.6,0.8c0.5,0.4,1.1,0.5,1.8,0.5c0.5,0,0.9-0.1,1.3-0.3c0.4-0.2,0.7-0.4,1-0.7l1.3-1.3
			c-0.6-0.6-1.3-1.2-1.9-1.8s-1.4-1-2.1-1.3c-0.7-0.4-1.5-0.6-2.3-0.8c-0.8-0.2-1.6-0.3-2.3-0.3c-1,0-2,0.1-2.9,0.4
			c-0.9,0.3-1.8,0.6-2.6,1.1c-0.8,0.5-1.5,1-2.2,1.7c-0.7,0.7-1.2,1.4-1.7,2.2c-0.5,0.8-0.8,1.7-1.1,2.6c-0.3,0.9-0.4,1.9-0.4,2.9
			c0,1,0.1,1.9,0.4,2.9c0.3,0.9,0.6,1.8,1.1,2.6c0.5,0.8,1,1.5,1.7,2.2c0.7,0.7,1.4,1.2,2.2,1.7c0.8,0.5,1.7,0.8,2.6,1.1
			c0.9,0.3,1.9,0.4,2.9,0.4c0.8,0,1.6-0.1,2.3-0.3c0.8-0.2,1.5-0.5,2.3-0.8s1.4-0.8,2.1-1.3c0.4-0.3,0.8-0.7,1.2-1.1l-1.5,3.3h3.1
			c0.3,0,0.6,0,0.9-0.1c0.3-0.1,0.6-0.2,0.9-0.4c0.3-0.2,0.5-0.4,0.7-0.6c0.2-0.2,0.4-0.5,0.5-0.7l1-2.3h8.4l1,2.3
			c0.1,0.3,0.3,0.6,0.5,0.8c0.2,0.2,0.4,0.4,0.7,0.6c0.3,0.2,0.5,0.3,0.8,0.4c0.3,0.1,0.6,0.1,0.9,0.1h3.1L233,18.7z M228.7,31.2
			l1.9-4.4c0.1-0.2,0.1-0.4,0.2-0.6c0.1-0.2,0.1-0.3,0.1-0.5c0-0.2,0.1-0.3,0.1-0.5c0,0.1,0,0.3,0.1,0.4c0,0.1,0.1,0.3,0.1,0.5
			c0,0.2,0.1,0.4,0.2,0.6l1.8,4.4H228.7z"/>
		<path class="st29" d="M79.7,18.7l-8.4,19.3c-0.1,0.3-0.3,0.5-0.5,0.8c-0.2,0.2-0.4,0.4-0.7,0.6c-0.3,0.2-0.5,0.3-0.8,0.4
			c-0.3,0.1-0.6,0.1-0.9,0.1h-0.8h-1.8v0H54.7V18.7h12.8v2.4H57.1v6.9h8.4v2.4h-8.4v7.1h9.7l7.3-16.9c0.3-0.5,0.6-1,1-1.3
			c0.2-0.2,0.4-0.3,0.6-0.4c0,0,0.1,0,0.1-0.1c0.1,0,0.1,0,0.2,0c0.1,0,0.1,0,0.2-0.1c0.1,0,0.1,0,0.2,0c0.1,0,0.2,0,0.3,0h0H79.7z
			 M11.1,29.9c0.6-0.4,1.1-0.8,1.5-1.3c0.4-0.5,0.7-1.1,1-1.8c0.2-0.7,0.3-1.3,0.3-2c0-0.8-0.2-1.6-0.5-2.4
			c-0.3-0.7-0.7-1.4-1.3-1.9c-0.5-0.5-1.2-1-1.9-1.3c-0.7-0.3-1.5-0.5-2.4-0.5H0.3v21.1h2.4v-9h3.7l5.8,7.8c0.3,0.4,0.6,0.7,1,0.9
			c0.4,0.2,0.9,0.3,1.4,0.3h1.4l-6.9-9.2C9.9,30.5,10.5,30.2,11.1,29.9z M7.8,28.4H2.7v-7.3h5.1c0.5,0,1,0.1,1.4,0.3
			c0.4,0.2,0.8,0.5,1.2,0.8c0.3,0.3,0.6,0.7,0.8,1.2c0.2,0.4,0.3,0.9,0.3,1.4c0,0.5-0.1,1-0.3,1.4c-0.2,0.4-0.5,0.8-0.8,1.2
			c-0.3,0.3-0.7,0.6-1.2,0.8C8.8,28.3,8.3,28.4,7.8,28.4z M17.8,18.7h12.8v2.4H20.2v6.9h8.4v2.4h-8.4v7.1h10.4v2.4H17.8V18.7z
			 M50.6,23.9c-0.5-0.8-1-1.5-1.7-2.1c-0.6-0.6-1.4-1.2-2.1-1.7c-0.8-0.5-1.6-0.8-2.5-1.1c-0.9-0.3-1.8-0.4-2.8-0.4h-7.8v21.1h7.8
			c1,0,1.9-0.1,2.8-0.4c0.9-0.3,1.7-0.6,2.5-1.1c0.8-0.5,1.5-1,2.1-1.7c0.6-0.6,1.2-1.4,1.7-2.1c0.5-0.8,0.8-1.6,1.1-2.5
			c0.3-0.9,0.4-1.8,0.4-2.8s-0.1-1.9-0.4-2.8C51.4,25.5,51.1,24.7,50.6,23.9z M49.1,32.4c-0.4,1-1,1.9-1.8,2.6
			c-0.7,0.7-1.6,1.3-2.6,1.8c-1,0.4-2.1,0.6-3.2,0.6H36V21.1h5.5c1.1,0,2.2,0.2,3.2,0.6c1,0.4,1.9,1,2.6,1.8
			c0.7,0.7,1.3,1.6,1.8,2.6c0.4,1,0.6,2.1,0.6,3.2C49.7,30.4,49.5,31.4,49.1,32.4z"/>
		<path class="st29" d="M10.3,6.3v4.5c-0.3,0.2-0.6,0.5-0.9,0.6c-0.3,0.2-0.7,0.3-1,0.4C8,11.9,7.6,12,7.2,12
			c-0.4,0-0.8,0.1-1.2,0.1c-0.8,0-1.6-0.2-2.3-0.5c-0.7-0.3-1.4-0.7-1.9-1.3c-0.5-0.5-1-1.2-1.3-1.9C0.2,7.6,0,6.9,0,6
			c0-0.8,0.2-1.6,0.5-2.3c0.3-0.7,0.7-1.4,1.3-1.9c0.5-0.5,1.2-1,1.9-1.3C4.4,0.2,5.2,0,6,0c0.8,0,1.6,0.1,2.3,0.4
			C9,0.7,9.7,1.2,10.2,1.7l-0.1,0.1C10,1.9,9.9,2,9.8,2C9.7,2.1,9.6,2.1,9.4,2.1C9.2,2.1,9,2,8.9,1.9C8.5,1.6,8,1.4,7.6,1.3
			C7.1,1.1,6.6,1,6,1C5.6,1,5.1,1.1,4.7,1.2C4.3,1.3,3.9,1.5,3.5,1.7c-0.4,0.2-0.7,0.5-1,0.8c-0.3,0.3-0.6,0.6-0.8,1
			C1.5,3.9,1.3,4.3,1.2,4.7C1.1,5.1,1,5.6,1,6c0,0.5,0.1,0.9,0.2,1.3c0.1,0.4,0.3,0.8,0.5,1.2c0.2,0.4,0.5,0.7,0.8,1
			c0.3,0.3,0.7,0.6,1,0.8c0.4,0.2,0.8,0.4,1.2,0.5C5.2,11,5.7,11,6.1,11c0.6,0,1.1-0.1,1.7-0.2c0.5-0.2,1-0.4,1.5-0.7V7.3h-1
			c-0.2,0-0.3,0-0.4-0.1C7.7,7.2,7.6,7.1,7.5,7C7.4,6.9,7.4,6.8,7.3,6.7c0-0.1-0.1-0.2-0.1-0.4v0H10.3z M17,11.9h-1V0.1h4.1
			c0.5,0,0.9,0.1,1.3,0.3c0.4,0.2,0.8,0.4,1,0.7c0.3,0.3,0.5,0.6,0.7,1c0.2,0.4,0.3,0.8,0.3,1.3c0,0.4-0.1,0.8-0.2,1.2
			c-0.1,0.4-0.3,0.7-0.6,1c-0.2,0.3-0.5,0.6-0.9,0.7c-0.3,0.2-0.7,0.3-1.1,0.4l3.9,5.2h-0.5c-0.6,0-1-0.2-1.3-0.6l-3.4-4.6H17V11.9z
			 M17,1.2v4.5h3.1c0.3,0,0.6-0.1,0.9-0.2c0.3-0.1,0.5-0.3,0.7-0.5c0.2-0.2,0.4-0.4,0.5-0.7c0.1-0.3,0.2-0.6,0.2-0.9
			c0-0.3-0.1-0.6-0.2-0.9c-0.1-0.3-0.3-0.5-0.5-0.7c-0.2-0.2-0.4-0.4-0.7-0.5c-0.3-0.1-0.6-0.2-0.9-0.2H17z M29.7,7.4
			c0,0.5,0.1,1,0.3,1.4c0.2,0.4,0.5,0.8,0.8,1.2c0.3,0.3,0.7,0.6,1.2,0.8c0.4,0.2,0.9,0.3,1.4,0.3c0.5,0,1-0.1,1.4-0.3
			c0.4-0.2,0.8-0.5,1.2-0.8c0.3-0.3,0.6-0.7,0.8-1.2C36.9,8.4,37,7.9,37,7.4V0.1h1v7.3c0,0.6-0.1,1.3-0.4,1.8
			c-0.2,0.6-0.6,1.1-1,1.5c-0.4,0.4-0.9,0.8-1.5,1c-0.6,0.2-1.2,0.4-1.8,0.4c-0.6,0-1.2-0.1-1.8-0.4c-0.6-0.2-1.1-0.6-1.5-1
			c-0.4-0.4-0.8-0.9-1-1.5c-0.2-0.6-0.4-1.2-0.4-1.8V0.1h1V7.4z M44.9,11.9h-1V0.1H48c0.5,0,1,0.1,1.4,0.3c0.4,0.2,0.8,0.4,1.1,0.8
			c0.3,0.3,0.6,0.7,0.8,1.1c0.2,0.4,0.3,0.9,0.3,1.4s-0.1,1-0.3,1.4c-0.2,0.4-0.4,0.8-0.8,1.1c-0.3,0.3-0.7,0.6-1.1,0.8
			c-0.4,0.2-0.9,0.3-1.4,0.3h-3.1V11.9z M48,6.3c0.4,0,0.7-0.1,1-0.2c0.3-0.1,0.6-0.3,0.8-0.5C50,5.3,50.2,5,50.3,4.7
			c0.1-0.3,0.2-0.6,0.2-1c0-0.4-0.1-0.7-0.2-1c-0.1-0.3-0.3-0.6-0.5-0.8c-0.2-0.2-0.5-0.4-0.8-0.5c-0.3-0.1-0.6-0.2-1-0.2h-3.1v5.1
			H48z M55.9,6c0-0.8,0.2-1.6,0.5-2.3c0.3-0.7,0.7-1.4,1.3-1.9c0.5-0.5,1.2-1,1.9-1.3C60.3,0.2,61.1,0,61.9,0c0.8,0,1.6,0.2,2.3,0.5
			c0.7,0.3,1.4,0.7,1.9,1.3c0.5,0.5,1,1.2,1.3,1.9c0.3,0.7,0.5,1.5,0.5,2.3c0,0.8-0.2,1.6-0.5,2.3c-0.3,0.7-0.7,1.4-1.3,1.9
			c-0.5,0.5-1.2,1-1.9,1.3c-0.7,0.3-1.5,0.5-2.3,0.5c-0.8,0-1.6-0.2-2.3-0.5c-0.7-0.3-1.4-0.7-1.9-1.3c-0.5-0.5-1-1.2-1.3-1.9
			C56,7.6,55.9,6.9,55.9,6z M56.9,6c0,0.5,0.1,0.9,0.2,1.3c0.1,0.4,0.3,0.8,0.5,1.2c0.2,0.4,0.5,0.7,0.8,1c0.3,0.3,0.6,0.6,1,0.8
			c0.4,0.2,0.8,0.4,1.2,0.5C61,11,61.4,11,61.9,11c0.5,0,0.9-0.1,1.3-0.2c0.4-0.1,0.8-0.3,1.2-0.5c0.4-0.2,0.7-0.5,1-0.8
			c0.3-0.3,0.6-0.6,0.8-1c0.2-0.4,0.4-0.8,0.5-1.2c0.1-0.4,0.2-0.9,0.2-1.3c0-0.7-0.1-1.3-0.4-1.9c-0.3-0.6-0.6-1.1-1.1-1.6
			c-0.5-0.5-1-0.8-1.6-1.1C63.2,1.2,62.6,1,61.9,1c-0.5,0-0.9,0.1-1.3,0.2c-0.4,0.1-0.8,0.3-1.2,0.5c-0.4,0.2-0.7,0.5-1,0.8
			c-0.3,0.3-0.6,0.6-0.8,1c-0.2,0.4-0.4,0.8-0.5,1.2C57,5.1,56.9,5.6,56.9,6z"/>
	</g>
	<g>
		<path class="st29" d="M269.1,26.7c0,2.3-0.4,3.2-3.7,4.1l1.5,1.3c0.2-0.3,0.3-0.7,0.4-1l4.7,0.2c-0.4,1.5-0.8,2.9-1.5,4l1.7,1.4
			l-1.2,3.2l-3.5-1.4c-1.5,0.9-3.5,1.4-6.1,1.4c-5,0-7.2-1.2-7.2-5.2c0-2.8,1.1-4.1,2.8-4.8c-0.6-0.8-0.7-1.7-0.7-3.2
			c0-2.9,1.8-4.7,6.4-4.7C266.3,22.1,269.1,23,269.1,26.7z M262.8,35.2l-2.8-2.3c-0.1,0.3-0.1,0.5-0.1,0.9c0,1,0.7,1.6,2,1.6
			C262.2,35.3,262.5,35.3,262.8,35.2z M262.5,28.3c0.3-0.2,0.9-0.8,0.9-1.5c0-0.9-0.3-1.2-0.8-1.2c-0.6,0-0.8,0.4-0.8,1.2
			C261.8,27.5,262,27.9,262.5,28.3z"/>
	</g>
</g>
<g id="Camada_5">
</g>
<g id="Camada_4" class="st221">
</g>
</svg>
